<svg width="356" height="445" viewBox="0 0 356 445" fill="none" xmlns="http://www.w3.org/2000/svg">
<g filter="url(#filter0_d_8_31716)">
<path d="M109.772 408.037C111.497 408.844 113.592 408.267 114.644 406.618C201.941 269.663 223.769 142.218 223.979 140.946C224.327 138.852 222.913 136.869 220.812 136.523C218.716 136.177 216.735 137.593 216.388 139.689C216.18 140.947 194.562 266.925 108.154 402.482C107.013 404.275 107.54 406.652 109.331 407.795C109.474 407.887 109.623 407.967 109.772 408.037Z" fill="#267E29"/>
<path d="M232.774 104.339C281.696 -0.202893 363.123 99.2002 247.143 121.881C363.123 99.2002 336.169 224.322 242.386 143.961C336.169 224.322 221.132 280.942 222.086 153.953C221.132 280.942 104.637 226.426 201.528 144.332C104.637 226.426 74.4063 101.824 196.193 122.344C74.4062 101.824 153.205 0.965144 210.099 104.545C153.205 0.965144 281.696 -0.202607 232.774 104.339Z" fill="#FF459F"/>
<path d="M212.622 147.4C203.962 143.347 200.227 133.041 204.279 124.381C208.332 115.72 218.638 111.985 227.299 116.038C235.959 120.091 239.694 130.397 235.642 139.057C231.589 147.718 221.283 151.453 212.622 147.4Z" fill="#FFCF0F"/>
<path d="M160.837 315.038C160.837 315.038 167.554 234.63 140.234 243.084C112.915 251.539 160.837 315.038 160.837 315.038Z" fill="#2EAC00"/>
<path d="M159.76 314.534C159.76 314.534 217.194 257.86 228.206 284.252C239.218 310.645 159.76 314.534 159.76 314.534Z" fill="#2EAC00"/>
<path d="M133.335 369.421C133.335 369.421 140.774 280.367 110.517 289.73C80.2597 299.094 133.335 369.421 133.335 369.421Z" fill="#2EAC00"/>
<path d="M132.142 368.863C132.142 368.863 195.751 306.095 207.947 335.325C220.143 364.555 132.142 368.863 132.142 368.863Z" fill="#2EAC00"/>
<path d="M226.188 122.951C225.963 123.432 226.17 124.005 226.652 124.23C227.133 124.455 227.705 124.247 227.93 123.766C228.156 123.285 227.948 122.713 227.467 122.487C226.986 122.262 226.413 122.47 226.188 122.951Z" fill="#FF00E5"/>
<path d="M212.935 126.307C212.454 126.082 212.247 125.51 212.472 125.028C212.697 124.547 213.269 124.34 213.751 124.565C214.232 124.79 214.439 125.363 214.214 125.844C213.989 126.325 213.416 126.532 212.935 126.307Z" fill="#FF00E5"/>
<path d="M231.638 133.998C231.413 134.479 231.62 135.051 232.102 135.276C232.583 135.502 233.155 135.294 233.38 134.813C233.606 134.332 233.398 133.759 232.917 133.534C232.436 133.309 231.863 133.516 231.638 133.998Z" fill="#FF00E5"/>
<path d="M226.282 143.173C225.801 142.947 225.594 142.375 225.819 141.894C226.044 141.413 226.616 141.205 227.098 141.43C227.579 141.655 227.786 142.228 227.561 142.709C227.336 143.19 226.763 143.398 226.282 143.173Z" fill="#FF00E5"/>
<path d="M220.831 132.126C220.35 131.901 220.143 131.329 220.368 130.847C220.593 130.366 221.166 130.159 221.647 130.384C222.128 130.609 222.335 131.182 222.11 131.663C221.885 132.144 221.312 132.351 220.831 132.126Z" fill="#FF00E5"/>
<path d="M215.013 140.023C214.532 139.798 214.324 139.225 214.549 138.744C214.774 138.263 215.347 138.055 215.828 138.28C216.309 138.506 216.517 139.078 216.291 139.559C216.066 140.04 215.494 140.248 215.013 140.023Z" fill="#FF00E5"/>
<path d="M206.301 135.946C205.819 135.721 205.612 135.148 205.837 134.667C206.062 134.186 206.635 133.978 207.116 134.204C207.597 134.429 207.804 135.001 207.579 135.482C207.354 135.964 206.782 136.171 206.301 135.946Z" fill="#FF00E5"/>
<path d="M210.026 130.255C209.801 130.737 210.008 131.309 210.489 131.534C210.97 131.759 211.543 131.552 211.768 131.071C211.993 130.59 211.786 130.017 211.305 129.792C210.824 129.567 210.251 129.774 210.026 130.255Z" fill="#FF00E5"/>
<path d="M217.124 121.896C216.643 121.671 216.435 121.098 216.661 120.617C216.886 120.136 217.458 119.928 217.939 120.153C218.42 120.379 218.628 120.951 218.403 121.432C218.178 121.913 217.605 122.121 217.124 121.896Z" fill="#FF00E5"/>
</g>
<defs>
<filter id="filter0_d_8_31716" x="95.1022" y="26.3956" width="234.861" height="394.186" filterUnits="userSpaceOnUse" color-interpolation-filters="sRGB">
<feFlood flood-opacity="0" result="BackgroundImageFix"/>
<feColorMatrix in="SourceAlpha" type="matrix" values="0 0 0 0 0 0 0 0 0 0 0 0 0 0 0 0 0 0 127 0" result="hardAlpha"/>
<feOffset dy="6.09176"/>
<feGaussianBlur stdDeviation="3.04588"/>
<feComposite in2="hardAlpha" operator="out"/>
<feColorMatrix type="matrix" values="0 0 0 0 0 0 0 0 0 0 0 0 0 0 0 0 0 0 0.25 0"/>
<feBlend mode="normal" in2="BackgroundImageFix" result="effect1_dropShadow_8_31716"/>
<feBlend mode="normal" in="SourceGraphic" in2="effect1_dropShadow_8_31716" result="shape"/>
</filter>
</defs>
</svg>
