<svg width="439" height="667" viewBox="0 0 439 667" fill="none" xmlns="http://www.w3.org/2000/svg">
<g filter="url(#filter0_d_8_31770)">
<path d="M205.672 601.802C206.191 601.65 206.529 601.134 206.443 600.585C199.305 555.011 180.008 523.764 179.814 523.453C179.494 522.942 178.821 522.785 178.308 523.106C177.797 523.426 177.641 524.1 177.961 524.612C178.153 524.919 197.218 555.814 204.283 600.923C204.377 601.52 204.936 601.927 205.532 601.834C205.58 601.826 205.627 601.816 205.672 601.802Z" fill="#267E29"/>
<path d="M199.075 572.399C199.075 572.399 185.398 554.01 181.167 560.944C176.937 567.878 199.075 572.399 199.075 572.399Z" fill="#2EAC00"/>
<path d="M198.751 572.494C198.751 572.494 200.336 549.631 207.64 553.183C214.945 556.736 198.751 572.494 198.751 572.494Z" fill="#2EAC00"/>
<path d="M203.435 589.15C203.435 589.15 188.287 568.784 183.602 576.463C178.916 584.143 203.435 589.15 203.435 589.15Z" fill="#2EAC00"/>
<path d="M203.076 589.255C203.076 589.255 204.831 563.934 212.921 567.869C221.011 571.803 203.076 589.255 203.076 589.255Z" fill="#2EAC00"/>
<path d="M192.828 488.657C190.996 489.079 189.915 491.815 189.738 495.695C184.959 487.132 179.225 488.244 180.236 498.121C174.583 487.803 167.14 489.812 168.597 501.558C164.107 493.704 158.589 494.219 159.204 503.432C147.025 490.269 151.285 518.687 157.176 524.947C174.039 545.99 198.126 539.212 202.712 513.063L202.643 513.027C204.213 506.671 198.469 487.152 192.828 488.657Z" fill="#9E30FF"/>
<path d="M207.405 557.238C208.129 557.026 208.544 556.267 208.332 555.543C208.12 554.819 207.361 554.404 206.637 554.616C205.913 554.829 205.498 555.587 205.71 556.311C205.923 557.035 206.682 557.45 207.405 557.238Z" fill="#238300"/>
<path d="M183.287 564.308C184.011 564.096 184.425 563.337 184.213 562.613C184.001 561.889 183.242 561.474 182.518 561.686C181.794 561.899 181.379 562.658 181.592 563.382C181.804 564.105 182.563 564.52 183.287 564.308Z" fill="#238300"/>
<path d="M187.308 579.126C187.268 578.372 186.624 577.794 185.871 577.834C185.118 577.875 184.54 578.518 184.58 579.271C184.62 580.024 185.263 580.602 186.017 580.562C186.77 580.522 187.348 579.879 187.308 579.126Z" fill="#238300"/>
<path d="M213.833 572.49C213.793 571.737 213.15 571.159 212.397 571.199C211.643 571.239 211.065 571.883 211.105 572.636C211.145 573.389 211.789 573.967 212.542 573.927C213.295 573.887 213.873 573.244 213.833 572.49Z" fill="#238300"/>
<path d="M155.08 505.959C156.882 511.874 158.781 517.945 161.878 523.325C156.917 519.345 154.597 512.178 155.08 505.959Z" fill="#B663FF"/>
<path d="M197.113 514.079C196.956 507.478 196.752 500.678 195.196 494.238C198.927 499.838 199.229 507.815 197.113 514.079Z" fill="#B663FF"/>
<path d="M162.854 501.403C164.91 508.172 167.056 515.146 170.421 521.391C165.178 516.53 162.627 508.438 162.854 501.403Z" fill="#B663FF"/>
<path d="M188.167 516.067C187.519 509.022 186.825 501.759 184.789 494.964C188.943 500.783 189.808 509.223 188.167 516.067Z" fill="#B663FF"/>
<path d="M173.557 497.127C176.945 503.721 179.325 510.821 180.569 518.131C177.172 511.54 174.809 504.434 173.557 497.127Z" fill="#B663FF"/>
<g filter="url(#filter1_d_8_31770)">
<path d="M328.872 619.298C327.849 619.581 326.715 619.433 325.762 618.798C250.017 568.274 218.017 461.129 204.511 380.143C189.945 292.804 193.148 216.248 193.182 215.485C193.274 213.395 195.049 211.777 197.134 211.87C199.224 211.963 200.842 213.732 200.749 215.822C200.715 216.578 197.55 292.458 212.004 379.03C225.27 458.491 256.505 563.497 329.965 612.497C331.705 613.657 332.175 616.009 331.014 617.748C330.489 618.538 329.72 619.065 328.872 619.298Z" fill="#267E29"/>
<path d="M190.58 319.674C172.171 324.753 153.055 317.854 141.875 302.096C134.143 291.2 121.597 262.79 146.855 211.741C130.726 229.055 114.753 240.136 99.7414 244.279C84.2316 248.558 70.005 245.314 59.6803 235.14C47.5144 223.154 42.737 203.544 47.5116 185.183C52.6282 165.508 67.9025 150.817 89.42 144.881C101.076 141.665 114.396 140.888 129.237 142.544C91.1595 124.337 84.7919 102.285 84.9024 89.3219C85.0781 69.0257 101.275 49.8622 123.416 43.7536C138.151 39.6884 152.413 42.4069 163.575 51.4055C173.025 59.025 183.507 73.8719 186.844 102.712C195.827 63.6204 215.54 51.8767 228.04 48.4279C253.015 41.5377 282.214 58.6566 289.302 84.3414C292.131 94.5982 296.207 127.782 240.096 147.887C288.501 147.21 311.983 169.907 317.708 194.517C323.751 220.495 309.912 247.667 287.488 253.853C276.107 256.993 248.974 257.987 215.649 214.878C227.362 245.272 229.399 271.814 221.192 291.622C215.279 305.892 204.411 315.853 190.592 319.671C190.588 319.671 190.583 319.673 190.58 319.674Z" fill="#FF76F1"/>
<path d="M198.22 207.449C221.072 201.145 234.487 177.508 228.182 154.655C221.877 131.803 198.241 118.388 175.388 124.693C152.536 130.998 139.121 154.635 145.426 177.487C151.731 200.34 175.367 213.754 198.22 207.449Z" fill="#FFCF0F"/>
<path d="M161.291 225.496C155.918 249.865 150.127 275.262 158.188 299.691C143.22 278.231 149.143 246.978 161.291 225.496Z" fill="#FFB5F8"/>
<path d="M200.506 228.485C206.111 250.008 206.143 280.931 190.063 298.043C199.962 276.587 198.966 251.593 200.506 228.485Z" fill="#FFB5F8"/>
<path d="M229.79 203.524C249.593 217.526 269.605 235.277 295.078 235.732C270.955 243.247 243.304 222.095 229.79 203.524Z" fill="#FFB5F8"/>
<path d="M249.427 169.448C272.454 172.612 303.032 186.376 309.179 210.887C295.737 189.401 271.251 180.138 249.427 169.448Z" fill="#FFB5F8"/>
<path d="M123.799 157.21C108.049 163.014 92.2903 168.983 78.354 178.379C69.9178 183.878 62.8928 190.702 57.1308 199.227C65.8228 172.483 97.6925 159.14 123.799 157.21Z" fill="#FFB5F8"/>
<path d="M139.67 183.505C126.9 204.487 103.898 222.804 78.2857 221.92C74.6669 221.664 71.1068 220.984 67.7417 219.823C71.3139 219.881 74.7892 219.873 78.2197 219.441C102.635 216.319 122.19 199.757 139.67 183.505Z" fill="#FFB5F8"/>
<path d="M253.08 64.3438C233.697 75.6368 216.29 89.8989 205.169 109.664C205.578 107.65 206.185 105.37 206.75 103.366C213.873 83.555 232.65 68.5454 253.08 64.3438Z" fill="#FFB5F8"/>
<path d="M276.689 83.6338C269.137 104.344 250.494 127.005 226.738 127.084C232.247 125.184 237.159 122.703 241.773 119.686C255.701 110.059 266.107 96.7354 276.689 83.6338Z" fill="#FFB5F8"/>
<path d="M170.074 104.537C161.226 84.3999 153.557 62.467 134.995 49.1555C157.26 55.7573 168.566 83.1175 170.074 104.537Z" fill="#FFB5F8"/>
<path d="M139.559 124.101C121.472 113.253 100.994 89.5569 107.35 67.0679C108.867 90.0479 125.877 107.03 139.559 124.101Z" fill="#FFB5F8"/>
<path d="M233.651 434.974C230.072 435.961 226.308 436.918 222.33 437.839C220.292 438.309 218.258 437.041 217.786 435.003C217.312 432.964 218.516 430.913 220.621 430.458C276.802 417.483 289.503 397.028 289.626 396.825C290.686 395.041 292.996 394.424 294.794 395.471C296.589 396.513 297.219 398.792 296.194 400.597C295.693 401.482 284.048 421.07 233.651 434.974Z" fill="#267E29"/>
<path d="M251.947 429.102C251.575 429.205 251.182 429.252 250.776 429.236C248.686 429.145 247.066 427.38 247.155 425.291C249.691 365.998 285.564 313.111 287.09 310.889C288.276 309.168 290.633 308.729 292.355 309.909C294.079 311.094 294.518 313.451 293.336 315.176C292.974 315.703 257.164 368.54 254.723 425.613C254.65 427.298 253.488 428.677 251.947 429.102Z" fill="#267E29"/>
<path d="M287.893 582.076C287.024 582.316 286.068 582.248 285.198 581.815C190.012 534.38 149.937 404.035 149.543 402.724C148.942 400.721 150.077 398.61 152.08 398.008C152.108 397.998 152.136 397.99 152.164 397.983C154.141 397.437 156.203 398.57 156.797 400.544C157.181 401.824 196.353 529.079 288.576 575.036C290.449 575.969 291.209 578.243 290.276 580.115C289.777 581.116 288.894 581.8 287.893 582.076Z" fill="#267E29"/>
<path d="M281.412 407.413C281.412 407.413 336.247 324.435 356.249 353.461C376.251 382.487 281.412 407.413 281.412 407.413Z" fill="#2EAC00"/>
<path d="M249.456 426.883C249.456 426.883 346.947 407.195 340.491 441.85C334.034 476.504 249.456 426.883 249.456 426.883Z" fill="#2EAC00"/>
<path d="M279.875 576.351C279.875 576.351 241.311 484.673 276.558 484.154C311.805 483.635 279.875 576.351 279.875 576.351Z" fill="#2EAC00"/>
<path d="M253.694 555.531C253.694 555.531 159.269 586.775 161.52 551.597C163.772 516.418 253.694 555.531 253.694 555.531Z" fill="#2EAC00"/>
<path d="M179.868 460.126C179.868 460.126 104.006 395.806 135.206 379.4C166.406 362.995 179.868 460.126 179.868 460.126Z" fill="#2EAC00"/>
<path d="M264.288 362.049C264.288 362.049 280.747 263.961 310.804 282.377C340.861 300.793 264.288 362.049 264.288 362.049Z" fill="#2EAC00"/>
<path d="M212.211 512.42C212.211 512.42 113.385 501.216 130.171 470.219C146.958 439.222 212.211 512.42 212.211 512.42Z" fill="#2EAC00"/>
<path d="M252.036 407.432C252.036 407.432 204.882 347.379 230.873 339.843C256.863 332.307 252.036 407.432 252.036 407.432Z" fill="#2EAC00"/>
<path d="M207.498 510.314C207.498 510.314 177.294 440.188 204.348 439.559C231.402 438.93 207.498 510.314 207.498 510.314Z" fill="#2EAC00"/>
<path d="M252.644 404.666C252.644 404.666 276.084 362.622 286.795 375.901C297.506 389.181 252.644 404.666 252.644 404.666Z" fill="#2EAC00"/>
</g>
</g>
<defs>
<filter id="filter0_d_8_31770" x="43.2798" y="41.9127" width="318.147" height="582.336" filterUnits="userSpaceOnUse" color-interpolation-filters="sRGB">
<feFlood flood-opacity="0" result="BackgroundImageFix"/>
<feColorMatrix in="SourceAlpha" type="matrix" values="0 0 0 0 0 0 0 0 0 0 0 0 0 0 0 0 0 0 127 0" result="hardAlpha"/>
<feOffset dy="2.40645"/>
<feGaussianBlur stdDeviation="1.20323"/>
<feComposite in2="hardAlpha" operator="out"/>
<feColorMatrix type="matrix" values="0 0 0 0 0 0 0 0 0 0 0 0 0 0 0 0 0 0 0.25 0"/>
<feBlend mode="normal" in2="BackgroundImageFix" result="effect1_dropShadow_8_31770"/>
<feBlend mode="normal" in="SourceGraphic" in2="effect1_dropShadow_8_31770" result="shape"/>
</filter>
<filter id="filter1_d_8_31770" x="36.4662" y="41.9127" width="331.774" height="595.963" filterUnits="userSpaceOnUse" color-interpolation-filters="sRGB">
<feFlood flood-opacity="0" result="BackgroundImageFix"/>
<feColorMatrix in="SourceAlpha" type="matrix" values="0 0 0 0 0 0 0 0 0 0 0 0 0 0 0 0 0 0 127 0" result="hardAlpha"/>
<feOffset dy="9.22006"/>
<feGaussianBlur stdDeviation="4.61003"/>
<feComposite in2="hardAlpha" operator="out"/>
<feColorMatrix type="matrix" values="0 0 0 0 0 0 0 0 0 0 0 0 0 0 0 0 0 0 0.25 0"/>
<feBlend mode="normal" in2="BackgroundImageFix" result="effect1_dropShadow_8_31770"/>
<feBlend mode="normal" in="SourceGraphic" in2="effect1_dropShadow_8_31770" result="shape"/>
</filter>
</defs>
</svg>
