<svg width="338" height="424" viewBox="0 0 338 424" fill="none" xmlns="http://www.w3.org/2000/svg">
<g filter="url(#filter0_d_8_31945)">
<path d="M104.44 388.216C106.081 388.983 108.074 388.434 109.075 386.866C192.132 256.563 212.898 135.31 213.099 134.099C213.429 132.107 212.084 130.22 210.086 129.891C208.092 129.562 206.207 130.91 205.876 132.904C205.679 134.1 185.111 253.959 102.901 382.931C101.814 384.636 102.316 386.898 104.02 387.986C104.157 388.073 104.298 388.149 104.44 388.216Z" fill="#267E29"/>
<path d="M221.466 99.2702C268.012 -0.193047 345.483 94.3812 235.137 115.96C345.483 94.3812 319.839 213.424 230.612 136.967C319.839 213.424 210.39 267.295 211.298 146.474C210.39 267.295 99.554 215.427 191.738 137.321C99.5537 215.427 70.7919 96.8777 186.662 116.4C70.7917 96.878 145.763 0.918256 199.893 99.4664C145.763 0.918256 268.012 -0.192777 221.466 99.2702Z" fill="#FF459F"/>
<path d="M202.294 140.24C194.054 136.384 190.5 126.578 194.356 118.339C198.212 110.099 208.018 106.545 216.257 110.401C224.497 114.257 228.051 124.063 224.195 132.302C220.339 140.542 210.534 144.096 202.294 140.24Z" fill="#FFCF0F"/>
<path d="M153.024 299.734C153.024 299.734 159.415 223.232 133.422 231.276C107.429 239.319 153.024 299.734 153.024 299.734Z" fill="#2EAC00"/>
<path d="M151.999 299.255C151.999 299.255 206.644 245.333 217.121 270.444C227.598 295.555 151.999 299.255 151.999 299.255Z" fill="#2EAC00"/>
<path d="M126.858 351.475C126.858 351.475 133.935 266.747 105.148 275.656C76.3608 284.565 126.858 351.475 126.858 351.475Z" fill="#2EAC00"/>
<path d="M125.723 350.945C125.723 350.945 186.242 291.226 197.846 319.036C209.449 346.846 125.723 350.945 125.723 350.945Z" fill="#2EAC00"/>
<path d="M215.2 116.979C214.986 117.437 215.183 117.981 215.641 118.195C216.099 118.41 216.643 118.212 216.858 117.754C217.072 117.297 216.875 116.752 216.417 116.538C215.959 116.323 215.414 116.521 215.2 116.979Z" fill="#FF00E5"/>
<path d="M202.591 120.172C202.133 119.957 201.936 119.413 202.15 118.955C202.364 118.497 202.909 118.3 203.367 118.514C203.824 118.728 204.022 119.273 203.808 119.731C203.593 120.188 203.049 120.386 202.591 120.172Z" fill="#FF00E5"/>
<path d="M220.385 127.488C220.171 127.946 220.368 128.491 220.826 128.705C221.284 128.919 221.829 128.722 222.043 128.264C222.257 127.806 222.06 127.261 221.602 127.047C221.144 126.833 220.599 127.03 220.385 127.488Z" fill="#FF00E5"/>
<path d="M215.289 136.218C214.832 136.004 214.634 135.459 214.849 135.001C215.063 134.543 215.607 134.346 216.065 134.56C216.523 134.774 216.72 135.319 216.506 135.777C216.292 136.235 215.747 136.432 215.289 136.218Z" fill="#FF00E5"/>
<path d="M210.105 125.708C209.647 125.494 209.449 124.949 209.664 124.491C209.878 124.034 210.422 123.836 210.88 124.05C211.338 124.265 211.535 124.809 211.321 125.267C211.107 125.725 210.562 125.922 210.105 125.708Z" fill="#FF00E5"/>
<path d="M204.568 133.221C204.11 133.007 203.912 132.462 204.127 132.004C204.341 131.546 204.886 131.349 205.343 131.563C205.801 131.777 205.998 132.322 205.784 132.78C205.57 133.238 205.025 133.435 204.568 133.221Z" fill="#FF00E5"/>
<path d="M196.279 129.342C195.822 129.128 195.624 128.583 195.838 128.125C196.052 127.668 196.597 127.47 197.055 127.684C197.513 127.899 197.71 128.443 197.496 128.901C197.282 129.359 196.737 129.556 196.279 129.342Z" fill="#FF00E5"/>
<path d="M199.823 123.928C199.609 124.386 199.806 124.93 200.264 125.145C200.722 125.359 201.267 125.162 201.481 124.704C201.695 124.246 201.498 123.701 201.04 123.487C200.582 123.273 200.037 123.47 199.823 123.928Z" fill="#FF00E5"/>
<path d="M206.577 115.974C206.119 115.76 205.921 115.215 206.136 114.758C206.35 114.3 206.895 114.103 207.352 114.317C207.81 114.531 208.007 115.076 207.793 115.533C207.579 115.991 207.034 116.189 206.577 115.974Z" fill="#FF00E5"/>
</g>
<defs>
<filter id="filter0_d_8_31945" x="90.4822" y="25.1134" width="223.452" height="375.037" filterUnits="userSpaceOnUse" color-interpolation-filters="sRGB">
<feFlood flood-opacity="0" result="BackgroundImageFix"/>
<feColorMatrix in="SourceAlpha" type="matrix" values="0 0 0 0 0 0 0 0 0 0 0 0 0 0 0 0 0 0 127 0" result="hardAlpha"/>
<feOffset dy="5.79584"/>
<feGaussianBlur stdDeviation="2.89792"/>
<feComposite in2="hardAlpha" operator="out"/>
<feColorMatrix type="matrix" values="0 0 0 0 0 0 0 0 0 0 0 0 0 0 0 0 0 0 0.25 0"/>
<feBlend mode="normal" in2="BackgroundImageFix" result="effect1_dropShadow_8_31945"/>
<feBlend mode="normal" in="SourceGraphic" in2="effect1_dropShadow_8_31945" result="shape"/>
</filter>
</defs>
</svg>
