<svg width="200" height="346" viewBox="0 0 200 346" fill="none" xmlns="http://www.w3.org/2000/svg">
<g filter="url(#filter0_d_8_31586)">
<path d="M134.112 335.641C133.212 335.641 132.312 335.298 131.626 334.611C78.1407 281.126 101.533 172.483 102.555 167.884C102.976 165.987 104.849 164.794 106.749 165.215C108.644 165.635 109.839 167.513 109.419 169.408C109.177 170.497 85.8523 278.893 136.598 329.64C137.971 331.013 137.971 333.238 136.598 334.611C135.912 335.298 135.011 335.641 134.112 335.641Z" fill="#267E29"/>
<path d="M169.432 204.023C167.913 240.947 156.061 273.031 128.632 298.493C124.999 301.901 121.436 305.289 117.74 308.557L114.927 305.903C113.95 301.604 113.62 297.78 113.421 294.207C112.902 277.789 114.624 258.878 121.062 245.428C124.786 237.527 132.822 227.837 141.029 220.842C148.897 214.106 154.816 209.377 165.59 203.583L169.432 204.023Z" fill="#2EAC00"/>
<path d="M114.37 303.68C70.2562 293.512 49.8182 266.667 46.507 222.238C46.0152 216.906 45.4794 211.638 44.6494 206.471L47.5587 205.787C56.2126 211.251 61.9988 219.124 67.8333 227.018C80.8655 244.956 90.6532 262.309 102.776 280.718C107.06 287.438 111.298 293.328 115.181 300.804L114.37 303.68Z" fill="#2EAC00"/>
<path d="M125.388 118.001C199.81 187.286 70.0988 227.781 91.9406 128.443C70.0988 227.781 -30.182 134.422 66.0821 104.369C-30.182 134.422 -0.751068 0.567299 73.6712 69.8531C-0.751068 0.567299 128.961 -39.9276 107.119 59.4111C128.961 -39.9276 229.241 53.4321 132.977 83.4849C229.241 53.4315 199.81 187.286 125.388 118.001Z" fill="#55B2FF"/>
<path d="M99.8343 118.657C113.426 118.657 124.444 107.984 124.444 94.8167C124.444 81.6499 113.426 70.976 99.8343 70.976C86.2428 70.976 75.2246 81.6499 75.2246 94.8167C75.2246 107.984 86.2428 118.657 99.8343 118.657Z" fill="#FFCF0F"/>
<path d="M150.812 35.9288C142.928 46.6824 134.139 56.6577 124.444 65.8123C132.32 55.0522 141.123 45.0903 150.812 35.9288Z" fill="#9AD0FD"/>
<path d="M88.4077 26.2607C91.3547 37.7956 93.1242 49.5244 93.6815 61.4174C90.7242 49.8843 88.9747 38.1526 88.4077 26.2607Z" fill="#9AD0FD"/>
<path d="M33.9148 59.66C46.4741 64.3239 58.7231 70.3918 69.0718 78.996C57.361 72.4099 45.4745 66.5199 33.9148 59.66Z" fill="#9AD0FD"/>
<path d="M76.1031 121.184C66.4699 133.095 55.8362 144.322 44.4622 154.584C54.1008 142.668 64.725 131.45 76.1031 121.184Z" fill="#9AD0FD"/>
<path d="M109.502 129.974C113.595 144.326 116.549 159.096 118.292 173.92C114.198 159.565 111.244 144.798 109.502 129.974Z" fill="#9AD0FD"/>
<path d="M132.354 112.395C143.723 114.818 159.781 119.186 171.191 122.063C157.812 121.158 144.698 117.553 132.354 112.395Z" fill="#9AD0FD"/>
<path d="M97.1972 79.8751C97.6826 79.8751 98.0761 79.4816 98.0761 78.9962C98.0761 78.5108 97.6826 78.1173 97.1972 78.1173C96.7118 78.1173 96.3184 78.5108 96.3184 78.9962C96.3184 79.4816 96.7118 79.8751 97.1972 79.8751Z" fill="#FF00E6"/>
<path d="M105.987 86.9063C106.472 86.9063 106.866 86.5128 106.866 86.0274C106.866 85.542 106.472 85.1486 105.987 85.1486C105.501 85.1486 105.108 85.542 105.108 86.0274C105.108 86.5128 105.501 86.9063 105.987 86.9063Z" fill="#FF00E6"/>
<path d="M98.0761 93.0589C98.0761 93.5444 97.6827 93.9378 97.1972 93.9378C96.7117 93.9378 96.3184 93.5444 96.3184 93.0589C96.3184 92.5734 96.7117 92.1801 97.1972 92.1801C97.6827 92.1801 98.0761 92.5734 98.0761 93.0589Z" fill="#FF00E6"/>
<path d="M86.6504 97.4535C87.1357 97.4535 87.5292 97.06 87.5292 96.5746C87.5292 96.0892 87.1357 95.6957 86.6504 95.6957C86.165 95.6957 85.7715 96.0892 85.7715 96.5746C85.7715 97.06 86.165 97.4535 86.6504 97.4535Z" fill="#FF00E6"/>
<path d="M113.897 100.09C113.897 100.576 113.503 100.969 113.018 100.969C112.532 100.969 112.139 100.576 112.139 100.09C112.139 99.6046 112.532 99.2113 113.018 99.2113C113.503 99.2113 113.897 99.6049 113.897 100.09Z" fill="#FF00E6"/>
<path d="M99.8341 108.879C99.8341 109.365 99.4408 109.758 98.9553 109.758C98.4698 109.758 98.0764 109.365 98.0764 108.879C98.0764 108.394 98.4698 108.001 98.9553 108.001C99.4408 108.001 99.8341 108.394 99.8341 108.879Z" fill="#FF00E6"/>
<path d="M105.108 98.3324C105.108 98.8179 104.714 99.2112 104.229 99.2112C103.743 99.2112 103.35 98.8179 103.35 98.3324C103.35 97.8469 103.743 97.4535 104.229 97.4535C104.714 97.4535 105.108 97.8469 105.108 98.3324Z" fill="#FF00E6"/>
<path d="M96.3183 104.485C97.289 104.485 98.076 103.698 98.076 102.727C98.076 101.756 97.289 100.969 96.3183 100.969C95.3475 100.969 94.5605 101.756 94.5605 102.727C94.5605 103.698 95.3475 104.485 96.3183 104.485Z" fill="#FF00E6"/>
<path d="M105.987 104.485C106.472 104.485 106.866 104.091 106.866 103.606C106.866 103.12 106.472 102.727 105.987 102.727C105.501 102.727 105.108 103.12 105.108 103.606C105.108 104.091 105.501 104.485 105.987 104.485Z" fill="#FF00E6"/>
<path d="M113.897 89.5433C113.897 90.0288 113.503 90.4222 113.018 90.4222C112.532 90.4222 112.139 90.0285 112.139 89.5433C112.139 89.0581 112.532 88.6644 113.018 88.6644C113.503 88.6644 113.897 89.0578 113.897 89.5433Z" fill="#FF00E6"/>
<path d="M92.8027 88.664C93.7734 88.664 94.5604 87.877 94.5604 86.9063C94.5604 85.9355 93.7734 85.1486 92.8027 85.1486C91.8319 85.1486 91.0449 85.9355 91.0449 86.9063C91.0449 87.877 91.8319 88.664 92.8027 88.664Z" fill="#FF00E6"/>
<path d="M89.2868 103.606C89.2868 104.091 88.8934 104.485 88.4079 104.485C87.9224 104.485 87.5291 104.091 87.5291 103.606C87.5291 103.12 87.9224 102.727 88.4079 102.727C88.8934 102.727 89.2868 103.12 89.2868 103.606Z" fill="#FF00E6"/>
</g>
<defs>
<filter id="filter0_d_8_31586" x="-7.05719e-05" y="0" width="199.059" height="345.899" filterUnits="userSpaceOnUse" color-interpolation-filters="sRGB">
<feFlood flood-opacity="0" result="BackgroundImageFix"/>
<feColorMatrix in="SourceAlpha" type="matrix" values="0 0 0 0 0 0 0 0 0 0 0 0 0 0 0 0 0 0 127 0" result="hardAlpha"/>
<feOffset dy="5.12898"/>
<feGaussianBlur stdDeviation="2.56449"/>
<feComposite in2="hardAlpha" operator="out"/>
<feColorMatrix type="matrix" values="0 0 0 0 0 0 0 0 0 0 0 0 0 0 0 0 0 0 0.25 0"/>
<feBlend mode="normal" in2="BackgroundImageFix" result="effect1_dropShadow_8_31586"/>
<feBlend mode="normal" in="SourceGraphic" in2="effect1_dropShadow_8_31586" result="shape"/>
</filter>
</defs>
</svg>
