<svg width="183" height="338" viewBox="0 0 183 338" fill="none" xmlns="http://www.w3.org/2000/svg">
<g filter="url(#filter0_d_8_31879)">
<path d="M77.0263 327.372C75.4433 327.372 74.069 326.199 73.8582 324.587C56.3845 190.703 84.8562 87.0507 85.1459 86.0182C85.6222 84.3191 87.3856 83.324 89.0893 83.8037C90.7892 84.2816 91.7817 86.0463 91.3046 87.7472C91.0181 88.767 62.9054 191.242 80.2019 323.759C80.4299 325.511 79.1954 327.115 77.4438 327.345C77.3035 327.364 77.1637 327.372 77.0263 327.372Z" fill="#267E29"/>
<path d="M91.4233 55.3553C91.4233 -40.5997 -4.91452 5.55561 74.4225 63.5004C-4.91452 5.55561 -28.7081 109.265 70.2237 81.8021C-28.7081 109.265 37.9599 192.434 81.9885 96.4789C37.9597 192.434 144.887 192.434 100.858 96.4789C144.887 192.434 211.555 109.265 112.623 81.8021C211.555 109.265 187.761 5.55561 108.424 63.5004C187.761 5.55561 91.4233 -40.5994 91.4233 55.3553Z" fill="#FF459F"/>
<path d="M91.4236 94.8797C99.3726 94.8797 105.817 88.4357 105.817 80.4866C105.817 72.5375 99.3726 66.0935 91.4236 66.0935C83.4745 66.0935 77.0305 72.5375 77.0305 80.4866C77.0305 88.4357 83.4745 94.8797 91.4236 94.8797Z" fill="#FFCF0F"/>
<path d="M71.3455 239.353C71.3455 239.353 94.6213 176.441 112.213 192.434C129.805 208.426 71.3455 239.353 71.3455 239.353Z" fill="#2EAC00"/>
<path d="M72.3341 239.353C72.3341 239.353 49.0582 176.441 31.4663 192.434C13.8747 208.426 72.3341 239.353 72.3341 239.353Z" fill="#2EAC00"/>
<path d="M72.8918 289.993C72.8918 289.993 98.6702 220.317 118.153 238.028C137.637 255.74 72.8918 289.993 72.8918 289.993Z" fill="#2EAC00"/>
<path d="M73.9865 289.993C73.9865 289.993 48.2081 220.317 28.7251 238.028C9.24197 255.74 73.9865 289.993 73.9865 289.993Z" fill="#2EAC00"/>
<path d="M89.8237 71.6906C89.8237 72.1323 89.4659 72.4902 89.0242 72.4902C88.5825 72.4902 88.2246 72.1323 88.2246 71.6906C88.2246 71.2489 88.5825 70.8911 89.0242 70.8911C89.4659 70.8911 89.8237 71.2492 89.8237 71.6906Z" fill="#FF00E5"/>
<path d="M98.6199 78.8873C99.0615 78.8873 99.4195 78.5293 99.4195 78.0877C99.4195 77.6461 99.0615 77.2881 98.6199 77.2881C98.1783 77.2881 97.8203 77.6461 97.8203 78.0877C97.8203 78.5293 98.1783 78.8873 98.6199 78.8873Z" fill="#FF00E5"/>
<path d="M81.8277 78.0877C81.8277 78.5294 81.4698 78.8873 81.0281 78.8873C80.5864 78.8873 80.2285 78.5294 80.2285 78.0877C80.2285 77.646 80.5864 77.2881 81.0281 77.2881C81.4698 77.2881 81.8277 77.646 81.8277 78.0877Z" fill="#FF00E5"/>
<path d="M82.6272 86.8835C83.0688 86.8835 83.4268 86.5255 83.4268 86.0839C83.4268 85.6423 83.0688 85.2844 82.6272 85.2844C82.1856 85.2844 81.8276 85.6423 81.8276 86.0839C81.8276 86.5255 82.1856 86.8835 82.6272 86.8835Z" fill="#FF00E5"/>
<path d="M90.6237 80.4864C91.0653 80.4864 91.4233 80.1284 91.4233 79.6868C91.4233 79.2452 91.0653 78.8873 90.6237 78.8873C90.1821 78.8873 89.8242 79.2452 89.8242 79.6868C89.8242 80.1284 90.1821 80.4864 90.6237 80.4864Z" fill="#FF00E5"/>
<path d="M92.2229 88.4826C92.6645 88.4826 93.0225 88.1246 93.0225 87.683C93.0225 87.2414 92.6645 86.8834 92.2229 86.8834C91.7813 86.8834 91.4233 87.2414 91.4233 87.683C91.4233 88.1246 91.7813 88.4826 92.2229 88.4826Z" fill="#FF00E5"/>
<path d="M100.219 88.4826C100.661 88.4826 101.019 88.1246 101.019 87.683C101.019 87.2414 100.661 86.8834 100.219 86.8834C99.7777 86.8834 99.4197 87.2414 99.4197 87.683C99.4197 88.1246 99.7777 88.4826 100.219 88.4826Z" fill="#FF00E5"/>
<path d="M99.4195 82.8852C99.4195 83.3269 99.0616 83.6848 98.6199 83.6848C98.1782 83.6848 97.8203 83.3269 97.8203 82.8852C97.8203 82.4435 98.1782 82.0856 98.6199 82.0856C99.0613 82.0856 99.4195 82.4435 99.4195 82.8852Z" fill="#FF00E5"/>
<path d="M97.0205 74.0895C97.4621 74.0895 97.8201 73.7315 97.8201 73.2899C97.8201 72.8483 97.4621 72.4904 97.0205 72.4904C96.5789 72.4904 96.2209 72.8483 96.2209 73.2899C96.2209 73.7315 96.5789 74.0895 97.0205 74.0895Z" fill="#FF00E5"/>
</g>
<defs>
<filter id="filter0_d_8_31879" x="-9.77516e-05" y="0" width="182.847" height="337.5" filterUnits="userSpaceOnUse" color-interpolation-filters="sRGB">
<feFlood flood-opacity="0" result="BackgroundImageFix"/>
<feColorMatrix in="SourceAlpha" type="matrix" values="0 0 0 0 0 0 0 0 0 0 0 0 0 0 0 0 0 0 127 0" result="hardAlpha"/>
<feOffset dy="5.06431"/>
<feGaussianBlur stdDeviation="2.53215"/>
<feComposite in2="hardAlpha" operator="out"/>
<feColorMatrix type="matrix" values="0 0 0 0 0 0 0 0 0 0 0 0 0 0 0 0 0 0 0.25 0"/>
<feBlend mode="normal" in2="BackgroundImageFix" result="effect1_dropShadow_8_31879"/>
<feBlend mode="normal" in="SourceGraphic" in2="effect1_dropShadow_8_31879" result="shape"/>
</filter>
</defs>
</svg>
