<svg width="265" height="465" viewBox="0 0 265 465" fill="none" xmlns="http://www.w3.org/2000/svg">
<g filter="url(#filter0_d_8_31551)">
<path d="M71.0195 443.735C68.3993 442.96 66.6277 440.4 66.9379 437.589C88.4635 242.42 191.717 76.2481 192.757 74.5927C194.448 71.9022 197.998 71.0855 200.691 72.781C203.381 74.473 204.192 78.0232 202.502 80.7146C201.476 82.3478 99.6048 246.382 78.3782 438.85C78.0291 442.008 75.1854 444.287 72.0277 443.939C71.6794 443.9 71.3429 443.831 71.0195 443.735Z" fill="#00AF86"/>
<path d="M106.025 163.712C105.982 183.713 122.101 200.782 141.863 202.907C154.142 204.775 166.595 202.791 178.561 199.05C192.191 195.199 198.43 214.857 184.999 219.536C164.864 222.048 143.46 221.836 124.492 213.009C105.35 204.077 92.7206 184.471 89.9361 163.792C89.0971 151.914 106.742 151.808 106.025 163.712Z" fill="#00D3A2"/>
<path d="M148.906 129.366C148.561 137.999 154.968 146.131 163.394 148.358C166.698 149.167 169.487 149.387 172.889 149.425C177.708 149.198 182.475 148.182 187.093 146.88C192.069 145.529 197.198 148.468 198.549 153.444C200.162 159.106 195.86 164.991 189.992 165.216C177.816 166.143 165.806 166.603 154.261 161.27C142.087 155.711 133.681 143.358 131.75 130.211C131.484 118.888 148.059 118.062 148.906 129.366Z" fill="#00D3A2"/>
<path d="M87.9613 226.961C88.6499 234.809 92.4617 242.681 97.0373 249.039C113.248 271.664 141.612 266.759 159.975 249.508C164.681 245.194 171.994 245.511 176.309 250.217C181.863 256.027 179.382 266.183 171.852 268.859C132.913 286.083 101.444 283.875 75.3401 247.448C71.4252 242.038 67.7814 236.465 64.8542 230.316C61.7883 224.245 64.2242 216.839 70.2947 213.773C79.0256 209.013 90.0047 217.374 87.9613 226.961Z" fill="#00D3A2"/>
<path d="M63.3337 287.165C66.839 313.419 88.8336 334.02 115.99 324.912C124.16 322.493 132.028 318.159 139.125 312.674C150.493 304.406 163.051 320.566 152.156 329.533C132.766 339.14 108.537 346.383 87.1028 338.907C65.3392 331.015 51.9667 310.984 43.8746 290.442C39.5779 275.456 62.4764 271.578 63.3337 287.165Z" fill="#00D3A2"/>
<path d="M40.0415 355.357C43.6766 381.508 65.7501 402.189 92.8485 393.118C101.031 390.724 108.921 386.419 116.059 380.983C127.214 372.898 139.531 388.989 128.742 397.639C118.76 402.881 107.902 406.479 96.5287 408.811L92.5671 409.505L88.5121 409.894C55.1714 413.708 31.5001 387.502 20.9136 358.699C16.7688 344.108 38.9829 340.203 40.0415 355.357Z" fill="#00D3A2"/>
<path d="M169.462 132.328C169.462 132.328 298.775 80.5596 243.789 43.3002C202.674 15.44 169.462 132.328 169.462 132.328Z" fill="#FF4EB8"/>
<path d="M169.463 132.328C169.463 132.328 110.695 20.3997 173.282 16.4518C231.819 12.7595 169.463 132.328 169.463 132.328Z" fill="#FF4E4E"/>
</g>
<defs>
<filter id="filter0_d_8_31551" x="18.7773" y="16.368" width="240.249" height="430.849" filterUnits="userSpaceOnUse" color-interpolation-filters="sRGB">
<feFlood flood-opacity="0" result="BackgroundImageFix"/>
<feColorMatrix in="SourceAlpha" type="matrix" values="0 0 0 0 0 0 0 0 0 0 0 0 0 0 0 0 0 0 127 0" result="hardAlpha"/>
<feOffset dy="1.62136"/>
<feGaussianBlur stdDeviation="0.810678"/>
<feComposite in2="hardAlpha" operator="out"/>
<feColorMatrix type="matrix" values="0 0 0 0 0 0 0 0 0 0 0 0 0 0 0 0 0 0 0.25 0"/>
<feBlend mode="normal" in2="BackgroundImageFix" result="effect1_dropShadow_8_31551"/>
<feBlend mode="normal" in="SourceGraphic" in2="effect1_dropShadow_8_31551" result="shape"/>
</filter>
</defs>
</svg>
