<svg width="157" height="333" viewBox="0 0 157 333" fill="none" xmlns="http://www.w3.org/2000/svg">
<g filter="url(#filter0_d_8_32041)">
<path d="M76.1282 174.127C76.1282 174.127 86.8134 151.688 100.704 142.071C114.594 132.455 124.692 134.005 127.416 136.729C132.759 142.072 126.348 178.401 76.1282 174.127Z" fill="#2EAC00"/>
<path d="M119.937 144.208C113.392 157.77 97.4738 167.326 83.6082 171.99C85.2598 170.949 86.9467 170.008 88.6202 169.051C100.019 162.234 111.721 154.851 119.937 144.208Z" fill="#238300"/>
<path d="M74.8647 174.567C74.8647 174.567 66.5069 148.732 54.0197 135.89C41.5326 123.047 32.1972 123.552 29.2898 126.666C23.588 132.771 29.8941 167.103 74.8647 174.567Z" fill="#2EAC00"/>
<path d="M65.433 164.23C53.7318 159.914 45.0274 149.341 39.0934 138.732C38.2895 137.147 37.5123 135.553 36.7983 133.932C37.8816 135.345 38.8695 136.803 39.8885 138.235C47.0738 148.059 54.9639 157.74 65.433 164.23Z" fill="#238300"/>
<path d="M72.2834 238.991C72.2834 238.991 85.1412 216.553 101.856 206.936C118.571 197.32 130.722 198.869 134 201.594C140.428 206.936 132.714 243.265 72.2834 238.991Z" fill="#2EAC00"/>
<path d="M124.999 209.073C117.123 222.635 97.9683 232.191 81.2837 236.854C83.2712 235.814 85.301 234.873 87.3148 233.916C101.031 227.098 115.113 219.716 124.999 209.073Z" fill="#238300"/>
<path d="M70.7631 241.139C70.7631 241.139 60.7061 215.304 45.68 202.461C30.6539 189.619 19.4204 190.124 15.9219 193.237C9.06061 199.343 16.6487 233.675 70.7631 241.139Z" fill="#2EAC00"/>
<path d="M59.414 230.801C45.334 226.486 34.8595 215.913 27.7188 205.303C26.7515 203.719 25.8161 202.125 24.9573 200.504C26.2608 201.917 27.4495 203.375 28.6759 204.807C37.3216 214.631 46.8162 224.311 59.414 230.801Z" fill="#238300"/>
<path d="M149.617 19.1802C149.428 18.2401 148.054 17.8949 147.395 18.6297L146.377 19.6963C139.265 27.2467 132.713 35.3879 125.887 42.9221C122.342 47.0012 118.729 50.6847 115.173 54.3212C119.228 41.549 119.564 27.706 115.529 15.4137C113.93 10.75 111.901 6.30247 108.639 2.29717L108.381 1.97951C107.953 1.43653 106.953 1.75479 107.002 2.44032C107.413 21.9208 103.688 41.6921 95.644 59.7277C98.7149 43.8165 96.3009 27.0297 89.1674 12.275C87.0406 8.1618 84.5396 4.02444 80.9279 0.233702C80.4799 -0.263561 79.532 0.0908455 79.6112 0.750974C81.1505 23.4571 81.8406 46.5031 78.4554 69.0804C75.0701 46.5031 75.7601 23.4571 77.2994 0.750974C77.3783 0.0908455 76.4307 -0.263262 75.9827 0.233702C72.3713 4.02444 69.8703 8.1618 67.7432 12.275C60.61 27.0297 58.1958 43.8168 61.2666 59.7277C53.2228 41.6921 49.4975 21.9208 49.9084 2.44032C49.9577 1.75479 48.9578 1.43653 48.5293 1.97951L48.2717 2.29717C45.0093 6.30247 42.9799 10.75 41.3812 15.4137C37.346 27.7063 37.6822 41.549 41.7371 54.3212C38.1818 50.6847 34.568 47.0012 31.0235 42.9221C24.1969 35.3879 17.6452 27.247 10.5335 19.6963L9.51538 18.6297C8.85705 17.8949 7.48269 18.2401 7.29323 19.1802C5.05943 29.6254 5.2142 40.2296 7.2944 50.6853C14.2065 84.7125 44.1663 100.58 78.4547 98.912C112.743 100.58 142.703 84.7125 149.615 50.6853C151.696 40.2296 151.851 29.6254 149.617 19.1802Z" fill="#FF2F2F"/>
<path d="M75.2716 320.717C73.9654 320.717 72.8504 319.722 72.7252 318.395C67.6468 264.223 76.0458 79.2203 76.1307 77.3585C76.1959 75.945 77.3801 74.8348 78.8062 74.9182C80.2188 74.9816 81.3107 76.1802 81.2465 77.5919C81.1607 79.4507 72.7784 264.098 77.8242 317.919C77.956 319.326 76.9214 320.574 75.5139 320.706C75.4326 320.714 75.3517 320.717 75.2716 320.717Z" fill="#267E29"/>
</g>
<defs>
<filter id="filter0_d_8_32041" x="4.3869e-05" y="0" width="156.91" height="332.068" filterUnits="userSpaceOnUse" color-interpolation-filters="sRGB">
<feFlood flood-opacity="0" result="BackgroundImageFix"/>
<feColorMatrix in="SourceAlpha" type="matrix" values="0 0 0 0 0 0 0 0 0 0 0 0 0 0 0 0 0 0 127 0" result="hardAlpha"/>
<feOffset dy="5.67549"/>
<feGaussianBlur stdDeviation="2.83775"/>
<feComposite in2="hardAlpha" operator="out"/>
<feColorMatrix type="matrix" values="0 0 0 0 0 0 0 0 0 0 0 0 0 0 0 0 0 0 0.25 0"/>
<feBlend mode="normal" in2="BackgroundImageFix" result="effect1_dropShadow_8_32041"/>
<feBlend mode="normal" in="SourceGraphic" in2="effect1_dropShadow_8_32041" result="shape"/>
</filter>
</defs>
</svg>
