<svg width="230" height="355" viewBox="0 0 230 355" fill="none" xmlns="http://www.w3.org/2000/svg">
<g filter="url(#filter0_d_8_31854)">
<path d="M171.227 337.232C170.345 337.351 169.416 337.134 168.651 336.552C109.06 291.205 117.54 181.51 117.931 176.863C118.091 174.946 119.77 173.526 121.69 173.685C123.605 173.846 125.027 175.529 124.868 177.444C124.775 178.544 116.327 287.987 172.867 331.013C174.397 332.177 174.693 334.36 173.529 335.89C172.947 336.655 172.109 337.112 171.227 337.232Z" fill="#267E29"/>
<path d="M188.35 203.41C191.776 239.835 184.422 272.888 160.904 301.519C157.794 305.346 154.75 309.143 151.559 312.842L148.446 310.613C146.916 306.525 146.083 302.818 145.411 299.34C142.716 283.302 141.887 264.522 146.412 250.469C149.013 242.223 155.606 231.647 162.726 223.691C169.547 216.036 174.724 210.609 184.522 203.49L188.35 203.41Z" fill="#2EAC00"/>
<path d="M147.604 308.507C102.974 304.406 79.3494 280.792 70.1849 237.647C68.9926 232.483 67.7654 227.386 66.2631 222.427L69.0261 221.369C78.2431 225.577 84.9678 232.53 91.7427 239.498C106.916 255.359 118.829 271.079 133.173 287.524C138.269 293.546 143.212 298.76 148.017 305.577L147.604 308.507Z" fill="#2EAC00"/>
<path d="M133.688 124.886C215.923 182.946 94.067 239.944 102.266 139.584C94.067 239.944 -16.7407 161.711 73.6931 119.411C-16.7407 161.711 -5.69275 26.4802 76.5419 84.5399C-5.69275 26.4802 116.163 -30.5178 107.964 69.8424C116.163 -30.5178 226.971 47.7152 136.537 90.0157C226.97 47.7147 215.923 182.946 133.688 124.886Z" fill="#55B2FF"/>
<path d="M108.706 128.933C122.04 127.124 131.427 115.185 129.674 102.268C127.921 89.3517 115.691 80.3478 102.357 82.1576C89.0237 83.9674 79.6362 95.9057 81.3895 108.822C83.1427 121.739 95.3729 130.743 108.706 128.933Z" fill="#FFCF0F"/>
<path d="M147.7 40.9881C141.398 52.5872 134.105 63.5433 125.813 73.8151C132.106 62.2106 139.415 51.2657 147.7 40.9881Z" fill="#9AD0FD"/>
<path d="M85.1936 39.8133C89.6206 50.7366 92.9183 62.007 95.0487 73.5999C90.6118 62.6797 87.3334 51.4038 85.1936 39.8133Z" fill="#9AD0FD"/>
<path d="M36.1833 79.8344C49.1252 82.7372 61.9494 87.0589 73.2473 94.1216C60.882 89.22 48.437 85.0247 36.1833 79.8344Z" fill="#9AD0FD"/>
<path d="M85.7633 134.572C77.8991 147.539 68.9624 159.969 59.1708 171.551C67.0397 158.578 75.9684 146.158 85.7633 134.572Z" fill="#9AD0FD"/>
<path d="M119.698 138.747C125.625 152.283 130.489 166.378 134.172 180.688C128.244 167.152 123.381 153.058 119.698 138.747Z" fill="#9AD0FD"/>
<path d="M139.775 118.46C151.252 119.323 167.586 121.469 179.162 122.773C165.916 123.666 152.572 121.876 139.775 118.46Z" fill="#9AD0FD"/>
<path d="M100.955 91.2388C101.432 91.1742 101.765 90.7358 101.701 90.2596C101.636 89.7835 101.197 89.4498 100.721 89.5145C100.245 89.5791 99.9115 90.0175 99.9762 90.4937C100.041 90.9699 100.479 91.3035 100.955 91.2388Z" fill="#FF00E6"/>
<path d="M110.514 96.9662C110.991 96.9016 111.324 96.4632 111.26 95.987C111.195 95.5109 110.757 95.1773 110.28 95.2419C109.804 95.3065 109.471 95.7449 109.535 96.2211C109.6 96.6973 110.038 97.0309 110.514 96.9662Z" fill="#FF00E6"/>
<path d="M103.573 104.055C103.638 104.532 103.304 104.97 102.828 105.035C102.352 105.099 101.914 104.766 101.849 104.289C101.784 103.813 102.118 103.375 102.594 103.31C103.07 103.246 103.509 103.579 103.573 104.055Z" fill="#FF00E6"/>
<path d="M92.9498 109.888C93.4259 109.823 93.7595 109.385 93.6949 108.909C93.6303 108.433 93.1919 108.099 92.7157 108.164C92.2395 108.228 91.9059 108.667 91.9705 109.143C92.0352 109.619 92.4736 109.953 92.9498 109.888Z" fill="#FF00E6"/>
<path d="M120.03 108.846C120.095 109.323 119.761 109.761 119.285 109.826C118.809 109.89 118.37 109.557 118.306 109.08C118.241 108.604 118.575 108.166 119.051 108.101C119.527 108.037 119.965 108.37 120.03 108.846Z" fill="#FF00E6"/>
<path d="M107.405 119.341C107.469 119.817 107.136 120.256 106.659 120.32C106.183 120.385 105.745 120.052 105.68 119.575C105.616 119.099 105.949 118.661 106.425 118.596C106.902 118.531 107.34 118.865 107.405 119.341Z" fill="#FF00E6"/>
<path d="M111.173 108.292C111.238 108.768 110.905 109.207 110.428 109.271C109.952 109.336 109.514 109.003 109.449 108.526C109.384 108.05 109.718 107.612 110.194 107.547C110.67 107.482 111.109 107.816 111.173 108.292Z" fill="#FF00E6"/>
<path d="M103.37 115.498C104.323 115.369 104.99 114.492 104.861 113.54C104.731 112.588 103.855 111.92 102.902 112.05C101.95 112.179 101.283 113.056 101.412 114.008C101.541 114.96 102.418 115.628 103.37 115.498Z" fill="#FF00E6"/>
<path d="M112.855 114.211C113.331 114.146 113.665 113.708 113.6 113.232C113.536 112.755 113.097 112.422 112.621 112.486C112.145 112.551 111.811 112.989 111.876 113.466C111.94 113.942 112.379 114.275 112.855 114.211Z" fill="#FF00E6"/>
<path d="M118.626 98.4996C118.69 98.9759 118.357 99.4142 117.88 99.4788C117.404 99.5435 116.966 99.2097 116.901 98.7337C116.837 98.2577 117.17 97.8191 117.646 97.7545C118.122 97.6899 118.561 98.0233 118.626 98.4996Z" fill="#FF00E6"/>
<path d="M97.8148 100.446C98.7671 100.317 99.4343 99.44 99.3051 98.4877C99.1758 97.5354 98.299 96.8682 97.3467 96.9974C96.3943 97.1267 95.7271 98.0035 95.8564 98.9558C95.9856 99.9081 96.8625 100.575 97.8148 100.446Z" fill="#FF00E6"/>
<path d="M96.3553 115.572C96.42 116.049 96.0864 116.487 95.6102 116.552C95.1339 116.616 94.6956 116.283 94.6309 115.806C94.5663 115.33 94.8998 114.892 95.3761 114.827C95.8524 114.763 96.2907 115.096 96.3553 115.572Z" fill="#FF00E6"/>
</g>
<defs>
<filter id="filter0_d_8_31854" x="5.18451" y="14.9369" width="199.861" height="332.482" filterUnits="userSpaceOnUse" color-interpolation-filters="sRGB">
<feFlood flood-opacity="0" result="BackgroundImageFix"/>
<feColorMatrix in="SourceAlpha" type="matrix" values="0 0 0 0 0 0 0 0 0 0 0 0 0 0 0 0 0 0 127 0" result="hardAlpha"/>
<feOffset dy="5.0777"/>
<feGaussianBlur stdDeviation="2.53885"/>
<feComposite in2="hardAlpha" operator="out"/>
<feColorMatrix type="matrix" values="0 0 0 0 0 0 0 0 0 0 0 0 0 0 0 0 0 0 0.25 0"/>
<feBlend mode="normal" in2="BackgroundImageFix" result="effect1_dropShadow_8_31854"/>
<feBlend mode="normal" in="SourceGraphic" in2="effect1_dropShadow_8_31854" result="shape"/>
</filter>
</defs>
</svg>
