<svg width="213" height="460" viewBox="0 0 213 460" fill="none" xmlns="http://www.w3.org/2000/svg">
<g filter="url(#filter0_d_8_31695)">
<path d="M110.431 441.521C112.501 441.521 114.299 439.987 114.575 437.879C137.43 262.761 100.19 127.185 99.8107 125.834C99.1877 123.612 96.8815 122.311 94.6527 122.938C92.4293 123.563 91.1308 125.871 91.7549 128.096C92.1297 129.43 128.901 263.466 106.277 436.796C105.979 439.088 107.593 441.186 109.885 441.486C110.068 441.511 110.251 441.521 110.431 441.521Z" fill="#267E29"/>
<path d="M117.861 326.394C117.861 326.394 87.4162 244.107 64.4062 265.024C41.3966 285.942 117.861 326.394 117.861 326.394Z" fill="#2EAC00"/>
<path d="M116.568 326.394C116.568 326.394 147.012 244.107 170.022 265.024C193.032 285.942 116.568 326.394 116.568 326.394Z" fill="#2EAC00"/>
<path d="M115.838 392.63C115.838 392.63 82.1204 301.495 56.6368 324.662C31.1532 347.828 115.838 392.63 115.838 392.63Z" fill="#2EAC00"/>
<path d="M114.406 392.63C114.406 392.63 148.124 301.495 173.608 324.662C199.091 347.828 114.406 392.63 114.406 392.63Z" fill="#2EAC00"/>
<path d="M185.096 12.0148C177.911 11.591 170.992 20.4785 166.163 34.5431C157.828 -2.06301 135.564 -4.15195 128.641 33.2228C118.985 -10.7728 89.4766 -11.4064 82.1816 33.3171C74.1456 -0.372389 53.3175 -4.42362 45.6573 30.083C15.0868 -31.3912 0.132322 77.5988 15.0364 106.941C54.3245 202.411 150.115 203.45 195.123 112.323L194.91 112.117C207.523 90.4558 207.439 12.5589 185.096 12.0148Z" fill="#9E30FF"/>
<path d="M164.792 279.667C167.68 279.667 170.022 277.326 170.022 274.438C170.022 271.549 167.68 269.208 164.792 269.208C161.904 269.208 159.563 271.549 159.563 274.438C159.563 277.326 161.904 279.667 164.792 279.667Z" fill="#238300"/>
<path d="M68.5705 279.667C71.4587 279.667 73.8 277.326 73.8 274.438C73.8 271.549 71.4587 269.208 68.5705 269.208C65.6824 269.208 63.3411 271.549 63.3411 274.438C63.3411 277.326 65.6824 279.667 68.5705 279.667Z" fill="#238300"/>
<path d="M67.3858 338.434C68.0495 335.623 66.3089 332.807 63.4982 332.143C60.6874 331.479 57.8708 333.22 57.2071 336.031C56.5434 338.841 58.2839 341.658 61.0947 342.322C63.9055 342.985 66.7221 341.245 67.3858 338.434Z" fill="#238300"/>
<path d="M171.98 342.623C172.644 339.813 170.903 336.996 168.093 336.332C165.282 335.669 162.465 337.409 161.802 340.22C161.138 343.031 162.878 345.847 165.689 346.511C168.5 347.175 171.317 345.434 171.98 342.623Z" fill="#238300"/>
<path d="M27.7808 34.9272C28.0314 58.5963 28.4702 82.9469 34.0565 106.048C20.1145 86.082 19.3124 57.2546 27.7808 34.9272Z" fill="#B663FF"/>
<path d="M173.458 110.024C179.991 85.603 186.564 60.4034 187.784 35.0679C195.459 59.6578 187.977 89.2913 173.458 110.024Z" fill="#B663FF"/>
<path d="M61.2489 26.5604C61.5117 53.6431 61.8852 81.5754 67.5246 108.14C53.4985 84.636 52.8414 52.1615 61.2489 26.5604Z" fill="#B663FF"/>
<path d="M138.452 107.694C143.66 81.1155 148.931 53.6825 148.769 26.5264C157.763 52.3773 151.853 84.3166 138.452 107.694Z" fill="#B663FF"/>
<path d="M105.177 22.3768C110.522 50.2534 111.617 78.8993 108.315 107.094C102.935 79.2217 101.908 50.5717 105.177 22.3768Z" fill="#B663FF"/>
</g>
<defs>
<filter id="filter0_d_8_31695" x="2.95639e-05" y="0" width="212.59" height="459.947" filterUnits="userSpaceOnUse" color-interpolation-filters="sRGB">
<feFlood flood-opacity="0" result="BackgroundImageFix"/>
<feColorMatrix in="SourceAlpha" type="matrix" values="0 0 0 0 0 0 0 0 0 0 0 0 0 0 0 0 0 0 127 0" result="hardAlpha"/>
<feOffset dy="9.21286"/>
<feGaussianBlur stdDeviation="4.60643"/>
<feComposite in2="hardAlpha" operator="out"/>
<feColorMatrix type="matrix" values="0 0 0 0 0 0 0 0 0 0 0 0 0 0 0 0 0 0 0.25 0"/>
<feBlend mode="normal" in2="BackgroundImageFix" result="effect1_dropShadow_8_31695"/>
<feBlend mode="normal" in="SourceGraphic" in2="effect1_dropShadow_8_31695" result="shape"/>
</filter>
</defs>
</svg>
