<svg width="287" height="351" viewBox="0 0 287 351" fill="none" xmlns="http://www.w3.org/2000/svg">
<g filter="url(#filter0_d_8_31912)">
<path d="M201.925 319.622C200.59 320.305 198.925 319.909 198.052 318.64C125.557 213.238 104.861 113.519 104.66 112.523C104.329 110.884 105.387 109.284 107.031 108.954C108.672 108.624 110.27 109.684 110.601 111.325C110.799 112.309 131.29 210.88 203.046 315.205C203.994 316.585 203.645 318.47 202.266 319.42C202.156 319.496 202.041 319.563 201.925 319.622Z" fill="#267E29"/>
<path d="M96.7283 83.9491C55.3354 3.00517 -6.0211 83.4981 85.9008 98.1538C-6.0211 83.4981 18.6457 181.248 90.2538 115.404C18.6457 181.248 110.761 222.646 106.509 122.709C110.761 222.646 200.961 176.52 122.427 114.569C200.961 176.52 221.322 77.6032 126.02 97.1136C221.322 77.6034 156.513 0.381885 114.583 83.4862C156.513 0.381885 55.3355 3.00539 96.7283 83.9491Z" fill="#FF459F"/>
<path d="M113.778 117.291C120.484 113.861 123.14 105.646 119.711 98.9402C116.282 92.2346 108.066 89.5785 101.36 93.0076C94.6549 96.4367 91.9988 104.652 95.4279 111.358C98.8569 118.063 107.073 120.72 113.778 117.291Z" fill="#FFCF0F"/>
<path d="M159.164 247.824C159.164 247.824 151.66 184.713 173.399 190.615C195.137 196.517 159.164 247.824 159.164 247.824Z" fill="#2EAC00"/>
<path d="M159.999 247.397C159.999 247.397 113.225 204.368 105.284 225.447C97.3432 246.526 159.999 247.397 159.999 247.397Z" fill="#2EAC00"/>
<path d="M182.313 289.874C182.313 289.874 174.002 219.978 198.078 226.515C222.154 233.051 182.313 289.874 182.313 289.874Z" fill="#2EAC00"/>
<path d="M183.237 289.402C183.237 289.402 131.435 241.746 122.64 265.092C113.845 288.438 183.237 289.402 183.237 289.402Z" fill="#2EAC00"/>
<path d="M102.426 98.4189C102.617 98.7915 102.469 99.2478 102.097 99.4383C101.724 99.6288 101.268 99.4813 101.077 99.1087C100.887 98.7361 101.034 98.2798 101.407 98.0893C101.779 97.8988 102.236 98.0465 102.426 98.4189Z" fill="#FF00E5"/>
<path d="M112.95 100.695C113.323 100.505 113.47 100.048 113.28 99.676C113.089 99.3034 112.633 99.1559 112.26 99.3464C111.888 99.5369 111.74 99.9933 111.931 100.366C112.121 100.738 112.578 100.886 112.95 100.695Z" fill="#FF00E5"/>
<path d="M98.44 107.264C98.6305 107.637 98.483 108.093 98.1104 108.284C97.7378 108.474 97.2816 108.327 97.091 107.954C96.9005 107.582 97.048 107.125 97.4206 106.935C97.7932 106.744 98.2495 106.892 98.44 107.264Z" fill="#FF00E5"/>
<path d="M102.909 114.34C103.282 114.149 103.429 113.693 103.239 113.32C103.048 112.948 102.592 112.8 102.219 112.991C101.847 113.181 101.699 113.637 101.89 114.01C102.08 114.382 102.536 114.53 102.909 114.34Z" fill="#FF00E5"/>
<path d="M106.895 105.493C107.267 105.303 107.415 104.847 107.224 104.474C107.034 104.102 106.577 103.954 106.205 104.145C105.832 104.335 105.685 104.791 105.875 105.164C106.066 105.536 106.522 105.684 106.895 105.493Z" fill="#FF00E5"/>
<path d="M111.693 111.549C112.066 111.359 112.214 110.902 112.023 110.53C111.833 110.157 111.376 110.01 111.004 110.2C110.631 110.391 110.484 110.847 110.674 111.22C110.865 111.592 111.321 111.74 111.693 111.549Z" fill="#FF00E5"/>
<path d="M118.438 108.1C118.811 107.909 118.958 107.453 118.768 107.081C118.577 106.708 118.121 106.56 117.748 106.751C117.376 106.941 117.228 107.398 117.419 107.77C117.609 108.143 118.066 108.29 118.438 108.1Z" fill="#FF00E5"/>
<path d="M115.35 103.723C115.54 104.095 115.393 104.552 115.02 104.742C114.648 104.933 114.191 104.785 114.001 104.413C113.81 104.04 113.958 103.584 114.33 103.393C114.703 103.203 115.159 103.35 115.35 103.723Z" fill="#FF00E5"/>
<path d="M109.531 97.3381C109.904 97.1476 110.051 96.6912 109.861 96.3187C109.67 95.9461 109.214 95.7986 108.841 95.9891C108.469 96.1796 108.321 96.636 108.512 97.0085C108.702 97.381 109.159 97.5286 109.531 97.3381Z" fill="#FF00E5"/>
</g>
<defs>
<filter id="filter0_d_8_31912" x="21.4784" y="22.1942" width="189.129" height="307.355" filterUnits="userSpaceOnUse" color-interpolation-filters="sRGB">
<feFlood flood-opacity="0" result="BackgroundImageFix"/>
<feColorMatrix in="SourceAlpha" type="matrix" values="0 0 0 0 0 0 0 0 0 0 0 0 0 0 0 0 0 0 127 0" result="hardAlpha"/>
<feOffset dy="4.79824"/>
<feGaussianBlur stdDeviation="2.39912"/>
<feComposite in2="hardAlpha" operator="out"/>
<feColorMatrix type="matrix" values="0 0 0 0 0 0 0 0 0 0 0 0 0 0 0 0 0 0 0.25 0"/>
<feBlend mode="normal" in2="BackgroundImageFix" result="effect1_dropShadow_8_31912"/>
<feBlend mode="normal" in="SourceGraphic" in2="effect1_dropShadow_8_31912" result="shape"/>
</filter>
</defs>
</svg>
