<svg width="105" height="125" viewBox="0 0 105 125" fill="none" xmlns="http://www.w3.org/2000/svg">
<g filter="url(#filter0_d_8_31749)">
<path d="M20.4796 110.323C20.0235 110.032 19.8426 109.442 20.0776 108.939C39.608 67.1474 66.8328 42.4993 67.1057 42.2549C67.5548 41.8526 68.2455 41.8893 68.6486 42.3403C69.0508 42.7899 69.0131 43.4806 68.5635 43.8833C68.2938 44.1246 41.3885 68.4994 22.0578 109.864C21.802 110.411 21.1519 110.647 20.6049 110.392C20.561 110.371 20.5192 110.348 20.4796 110.323Z" fill="#267E29"/>
<path d="M34.9933 83.9136C34.9933 83.9136 53.2451 70.0534 55.3805 77.8903C57.516 85.7272 34.9933 83.9136 34.9933 83.9136Z" fill="#2EAC00"/>
<path d="M35.2779 84.0949C35.2779 84.0949 40.1136 61.6929 32.1092 63.074C24.1047 64.455 35.2779 84.0949 35.2779 84.0949Z" fill="#2EAC00"/>
<path d="M26.1467 98.7915C26.1467 98.7915 46.3609 83.4411 48.7259 92.1206C51.091 100.8 26.1467 98.7915 26.1467 98.7915Z" fill="#2EAC00"/>
<path d="M26.4625 98.9924C26.4625 98.9924 31.8181 74.1818 22.9532 75.7114C14.0882 77.241 26.4625 98.9924 26.4625 98.9924Z" fill="#2EAC00"/>
<path d="M64.2813 5.21195C65.9237 6.12641 66.2016 9.0554 65.2925 12.8318C72.2642 5.93529 77.463 8.59842 73.7452 17.8046C82.0447 9.46529 88.6354 13.4653 83.9687 24.3429C90.4655 18.0472 95.623 20.0764 92.4701 28.7541C107.83 19.4976 95.8352 45.6101 88.4351 49.9845C66.3854 65.5086 45.1334 52.2994 48.0002 25.907L48.0762 25.8914C48.3358 19.3493 59.282 2.19744 64.2813 5.21195Z" fill="#9E30FF"/>
<path d="M31.2076 67.034C30.5712 66.6288 30.3838 65.7845 30.7889 65.1481C31.1941 64.5118 32.0384 64.3243 32.6748 64.7295C33.3112 65.1347 33.4986 65.979 33.0934 66.6154C32.6883 67.2517 31.8439 67.4392 31.2076 67.034Z" fill="#238300"/>
<path d="M52.4087 80.5325C51.7724 80.1273 51.5849 79.283 51.9901 78.6466C52.3953 78.0102 53.2396 77.8228 53.876 78.228C54.5124 78.6331 54.6998 79.4775 54.2946 80.1138C53.8894 80.7502 53.0451 80.9376 52.4087 80.5325Z" fill="#238300"/>
<path d="M44.4258 93.6473C44.6739 92.9349 45.4525 92.5585 46.1649 92.8065C46.8774 93.0546 47.2538 93.8332 47.0057 94.5457C46.7576 95.2581 45.979 95.6345 45.2666 95.3864C44.5542 95.1384 44.1777 94.3597 44.4258 93.6473Z" fill="#238300"/>
<path d="M20.7918 79.8973C21.0398 79.1849 21.8185 78.8085 22.5309 79.0565C23.2433 79.3046 23.6198 80.0832 23.3717 80.7957C23.1236 81.5081 22.345 81.8845 21.6326 81.6364C20.9201 81.3884 20.5437 80.6097 20.7918 79.8973Z" fill="#238300"/>
<path d="M95.7295 32.3295C92.3539 37.5095 88.8412 42.8133 84.3696 47.1197C90.2425 44.6762 94.4632 38.437 95.7295 32.3295Z" fill="#B663FF"/>
<path d="M53.0965 28.4397C55.0829 22.1423 57.1697 15.6678 60.4551 9.91427C55.3143 14.2556 52.8059 21.8347 53.0965 28.4397Z" fill="#B663FF"/>
<path d="M89.5291 25.7907C85.6719 31.7211 81.6711 37.8233 76.7019 42.8854C83.0897 39.6742 87.7901 32.611 89.5291 25.7907Z" fill="#B663FF"/>
<path d="M61.1365 32.837C63.7175 26.2502 66.4045 19.4662 70.2498 13.5054C64.6416 17.9396 61.4632 25.8061 61.1365 32.837Z" fill="#B663FF"/>
<path d="M80.437 18.7065C75.3485 24.0989 71.0887 30.2571 67.8609 36.9327C72.9565 31.5461 77.2019 25.3775 80.437 18.7065Z" fill="#B663FF"/>
</g>
<defs>
<filter id="filter0_d_8_31749" x="17.3481" y="4.8599" width="84.974" height="110.448" filterUnits="userSpaceOnUse" color-interpolation-filters="sRGB">
<feFlood flood-opacity="0" result="BackgroundImageFix"/>
<feColorMatrix in="SourceAlpha" type="matrix" values="0 0 0 0 0 0 0 0 0 0 0 0 0 0 0 0 0 0 127 0" result="hardAlpha"/>
<feOffset dy="2.40645"/>
<feGaussianBlur stdDeviation="1.20323"/>
<feComposite in2="hardAlpha" operator="out"/>
<feColorMatrix type="matrix" values="0 0 0 0 0 0 0 0 0 0 0 0 0 0 0 0 0 0 0.25 0"/>
<feBlend mode="normal" in2="BackgroundImageFix" result="effect1_dropShadow_8_31749"/>
<feBlend mode="normal" in="SourceGraphic" in2="effect1_dropShadow_8_31749" result="shape"/>
</filter>
</defs>
</svg>
