<svg width="297" height="464" viewBox="0 0 297 464" fill="none" xmlns="http://www.w3.org/2000/svg">
<g filter="url(#filter0_d_8_31611)">
<path d="M94.6553 439.128C96.5912 439.665 98.6702 438.696 99.4745 436.796C166.24 278.958 166.557 142.52 166.553 141.159C166.546 138.919 164.727 137.104 162.48 137.113C160.239 137.121 158.426 138.943 158.433 141.185C158.438 142.53 158.081 277.406 91.9953 433.633C91.1224 435.699 92.0886 438.079 94.1533 438.954C94.3189 439.025 94.4872 439.082 94.6553 439.128Z" fill="#267E29"/>
<path d="M131.444 333.392C131.444 333.392 124.304 248.549 97.3639 262.146C70.4242 275.743 131.444 333.392 131.444 333.392Z" fill="#2EAC00"/>
<path d="M130.236 333.057C130.236 333.057 180.036 263.997 196.132 289.523C212.227 315.049 130.236 333.057 130.236 333.057Z" fill="#2EAC00"/>
<path d="M112.384 394.809C112.384 394.809 104.476 300.843 74.6399 315.902C44.8036 330.961 112.384 394.809 112.384 394.809Z" fill="#2EAC00"/>
<path d="M111.045 394.438C111.045 394.438 166.199 317.952 184.026 346.223C201.852 374.493 111.045 394.438 111.045 394.438Z" fill="#2EAC00"/>
<path d="M275.81 56.8263C269.202 54.5677 260.427 61.0852 252.265 72.9861C253.96 36.5933 233.68 28.8686 217.519 62.0255C219.893 18.3798 192.462 10.1384 174.048 50.071C175.265 16.4829 156.838 7.29556 140.73 37.579C128.076 -27.8331 85.8404 70.2133 92.1723 101.516C104.166 200.979 193.476 226.781 259.186 153.23L259.04 152.981C276.45 135.994 296.563 63.1266 275.81 56.8263Z" fill="#9E30FF"/>
<path d="M187.446 301.86C190.147 302.609 192.943 301.026 193.692 298.325C194.44 295.624 192.858 292.828 190.157 292.079C187.456 291.331 184.659 292.913 183.911 295.614C183.162 298.315 184.745 301.112 187.446 301.86Z" fill="#238300"/>
<path d="M97.4622 276.919C100.163 277.667 102.959 276.085 103.708 273.384C104.457 270.683 102.874 267.886 100.173 267.138C97.4724 266.389 94.676 267.972 93.9274 270.673C93.1787 273.374 94.7613 276.17 97.4622 276.919Z" fill="#238300"/>
<path d="M81.122 331.568C82.4713 329.112 81.5737 326.027 79.1172 324.677C76.6608 323.328 73.5756 324.226 72.2264 326.682C70.8772 329.139 71.7747 332.224 74.2312 333.573C76.6877 334.922 79.7728 334.025 81.122 331.568Z" fill="#238300"/>
<path d="M177.848 362.598C179.198 360.141 178.3 357.056 175.844 355.707C173.387 354.358 170.302 355.255 168.953 357.712C167.603 360.168 168.501 363.253 170.958 364.603C173.414 365.952 176.499 365.054 177.848 362.598Z" fill="#238300"/>
<path d="M122.757 37.4756C116.856 59.6749 110.954 82.5602 110.19 105.611C102.328 83.3262 109.05 56.1601 122.757 37.4756Z" fill="#B663FF"/>
<path d="M239.522 145.464C251.962 124.32 264.641 102.458 272.349 79.0816C273.153 104.067 258.474 129.839 239.522 145.464Z" fill="#B663FF"/>
<path d="M156.223 38.3266C149.449 63.7212 142.558 89.9392 140.946 116.243C133.922 90.6274 141.725 60.0883 156.223 38.3266Z" fill="#B663FF"/>
<path d="M207.39 134.211C219.15 110.706 231.19 86.4179 238.078 60.9806C239.788 87.4867 225.982 115.823 207.39 134.211Z" fill="#B663FF"/>
<path d="M198.387 45.8004C196.16 73.2549 189.759 100.327 179.363 125.838C181.556 98.3781 188.022 71.3197 198.387 45.8004Z" fill="#B663FF"/>
</g>
<defs>
<filter id="filter0_d_8_31611" x="58.0945" y="15.5453" width="235.477" height="441.61" filterUnits="userSpaceOnUse" color-interpolation-filters="sRGB">
<feFlood flood-opacity="0" result="BackgroundImageFix"/>
<feColorMatrix in="SourceAlpha" type="matrix" values="0 0 0 0 0 0 0 0 0 0 0 0 0 0 0 0 0 0 127 0" result="hardAlpha"/>
<feOffset dy="8.94031"/>
<feGaussianBlur stdDeviation="4.47016"/>
<feComposite in2="hardAlpha" operator="out"/>
<feColorMatrix type="matrix" values="0 0 0 0 0 0 0 0 0 0 0 0 0 0 0 0 0 0 0.25 0"/>
<feBlend mode="normal" in2="BackgroundImageFix" result="effect1_dropShadow_8_31611"/>
<feBlend mode="normal" in="SourceGraphic" in2="effect1_dropShadow_8_31611" result="shape"/>
</filter>
</defs>
</svg>
