<svg width="243" height="375" viewBox="0 0 243 375" fill="none" xmlns="http://www.w3.org/2000/svg">
<g filter="url(#filter0_d_8_31561)">
<path d="M61.963 356.086C62.8947 356.212 63.8756 355.983 64.6824 355.368C127.606 307.486 118.651 191.659 118.239 186.751C118.07 184.727 116.297 183.228 114.27 183.396C112.248 183.565 110.746 185.342 110.914 187.365C111.012 188.526 119.932 304.088 60.2316 349.52C58.616 350.749 58.3032 353.054 59.5326 354.669C60.1466 355.477 61.0312 355.959 61.963 356.086Z" fill="#267E29"/>
<path d="M43.8831 214.782C40.265 253.244 48.0303 288.145 72.8631 318.377C76.1472 322.418 79.361 326.427 82.7309 330.333L86.0174 327.979C87.6337 323.663 88.5131 319.748 89.2219 316.075C92.068 299.141 92.9432 279.311 88.1654 264.472C85.4193 255.765 78.4571 244.598 70.9393 236.198C63.7366 228.114 58.2706 222.384 47.9251 214.867L43.8831 214.782Z" fill="#2EAC00"/>
<path d="M86.9069 325.755C134.032 321.425 158.977 296.491 168.654 250.934C169.913 245.481 171.209 240.099 172.795 234.863L169.878 233.746C160.146 238.188 153.045 245.53 145.891 252.888C129.87 269.636 117.291 286.235 102.145 303.599C96.7632 309.958 91.5447 315.463 86.4709 322.661L86.9069 325.755Z" fill="#2EAC00"/>
<path d="M101.601 131.869C14.7686 193.174 143.437 253.359 134.779 147.388C143.437 253.359 260.44 170.752 164.95 126.087C260.44 170.752 248.774 27.9607 161.942 89.2665C248.774 27.9607 120.106 -32.2241 128.763 73.7473C120.106 -32.2241 3.10288 50.383 98.5928 95.0484C3.10297 50.3824 14.7686 193.174 101.601 131.869Z" fill="#55B2FF"/>
<path d="M127.979 136.142C113.9 134.231 103.988 121.625 105.839 107.986C107.691 94.3473 120.605 84.8399 134.684 86.751C148.762 88.662 158.675 101.268 156.823 114.907C154.972 128.546 142.058 138.053 127.979 136.142Z" fill="#FFCF0F"/>
<path d="M86.8056 43.2797C93.4598 55.5272 101.161 67.096 109.917 77.942C103.271 65.6887 95.5533 54.1318 86.8056 43.2797Z" fill="#9AD0FD"/>
<path d="M152.806 42.0391C148.131 53.5731 144.649 65.4737 142.4 77.7147C147.085 66.1839 150.546 54.2776 152.806 42.0391Z" fill="#9AD0FD"/>
<path d="M204.557 84.2979C190.892 87.363 177.35 91.9263 165.421 99.3839C178.477 94.2082 191.618 89.7783 204.557 84.2979Z" fill="#9AD0FD"/>
<path d="M152.205 142.096C160.509 155.788 169.945 168.913 180.284 181.142C171.976 167.444 162.548 154.33 152.205 142.096Z" fill="#9AD0FD"/>
<path d="M116.373 146.505C110.115 160.797 104.978 175.68 101.089 190.79C107.349 176.497 112.484 161.615 116.373 146.505Z" fill="#9AD0FD"/>
<path d="M95.1731 125.083C83.0554 125.994 65.8082 128.261 53.5844 129.637C67.5706 130.58 81.6615 128.69 95.1731 125.083Z" fill="#9AD0FD"/>
<path d="M136.164 96.3398C135.661 96.2715 135.309 95.8086 135.377 95.3058C135.445 94.803 135.908 94.4508 136.411 94.519C136.914 94.5873 137.266 95.0502 137.198 95.553C137.129 96.0558 136.666 96.408 136.164 96.3398Z" fill="#FF00E6"/>
<path d="M126.07 102.388C125.567 102.319 125.215 101.856 125.283 101.354C125.352 100.851 125.814 100.499 126.317 100.567C126.82 100.635 127.172 101.098 127.104 101.601C127.036 102.104 126.573 102.456 126.07 102.388Z" fill="#FF00E6"/>
<path d="M133.399 109.873C133.331 110.376 133.683 110.839 134.186 110.907C134.689 110.975 135.152 110.623 135.22 110.12C135.288 109.617 134.936 109.154 134.433 109.086C133.93 109.018 133.467 109.37 133.399 109.873Z" fill="#FF00E6"/>
<path d="M144.617 116.032C144.114 115.963 143.762 115.5 143.83 114.998C143.898 114.495 144.361 114.143 144.864 114.211C145.367 114.279 145.719 114.742 145.651 115.245C145.582 115.748 145.119 116.1 144.617 116.032Z" fill="#FF00E6"/>
<path d="M116.023 114.932C115.954 115.435 116.306 115.897 116.809 115.966C117.312 116.034 117.775 115.682 117.843 115.179C117.912 114.676 117.559 114.213 117.056 114.145C116.554 114.077 116.091 114.429 116.023 114.932Z" fill="#FF00E6"/>
<path d="M129.354 126.013C129.285 126.516 129.637 126.979 130.14 127.047C130.643 127.116 131.106 126.764 131.174 126.261C131.243 125.758 130.89 125.295 130.388 125.227C129.885 125.158 129.422 125.511 129.354 126.013Z" fill="#FF00E6"/>
<path d="M125.374 114.347C125.306 114.85 125.658 115.313 126.161 115.381C126.664 115.449 127.127 115.097 127.195 114.594C127.263 114.091 126.911 113.628 126.408 113.56C125.905 113.492 125.442 113.844 125.374 114.347Z" fill="#FF00E6"/>
<path d="M133.614 121.956C132.608 121.819 131.904 120.893 132.04 119.888C132.177 118.882 133.102 118.178 134.108 118.314C135.114 118.451 135.818 119.376 135.682 120.382C135.545 121.388 134.619 122.092 133.614 121.956Z" fill="#FF00E6"/>
<path d="M123.599 120.596C123.096 120.528 122.744 120.065 122.812 119.562C122.88 119.06 123.343 118.707 123.846 118.775C124.349 118.844 124.701 119.307 124.633 119.809C124.564 120.312 124.101 120.664 123.599 120.596Z" fill="#FF00E6"/>
<path d="M117.505 104.007C117.437 104.509 117.789 104.972 118.292 105.04C118.795 105.109 119.258 104.756 119.326 104.254C119.394 103.751 119.042 103.288 118.539 103.22C118.037 103.151 117.573 103.504 117.505 104.007Z" fill="#FF00E6"/>
<path d="M139.48 106.062C138.474 105.925 137.77 105 137.906 103.994C138.043 102.988 138.968 102.284 139.974 102.42C140.98 102.557 141.684 103.483 141.548 104.488C141.411 105.494 140.485 106.198 139.48 106.062Z" fill="#FF00E6"/>
<path d="M141.021 122.034C140.952 122.537 141.304 123 141.807 123.068C142.31 123.136 142.773 122.784 142.841 122.281C142.91 121.778 142.557 121.315 142.055 121.247C141.552 121.179 141.089 121.531 141.021 122.034Z" fill="#FF00E6"/>
</g>
<defs>
<filter id="filter0_d_8_31561" x="26.2539" y="15.7721" width="211.035" height="351.071" filterUnits="userSpaceOnUse" color-interpolation-filters="sRGB">
<feFlood flood-opacity="0" result="BackgroundImageFix"/>
<feColorMatrix in="SourceAlpha" type="matrix" values="0 0 0 0 0 0 0 0 0 0 0 0 0 0 0 0 0 0 127 0" result="hardAlpha"/>
<feOffset dy="5.36159"/>
<feGaussianBlur stdDeviation="2.68079"/>
<feComposite in2="hardAlpha" operator="out"/>
<feColorMatrix type="matrix" values="0 0 0 0 0 0 0 0 0 0 0 0 0 0 0 0 0 0 0.25 0"/>
<feBlend mode="normal" in2="BackgroundImageFix" result="effect1_dropShadow_8_31561"/>
<feBlend mode="normal" in="SourceGraphic" in2="effect1_dropShadow_8_31561" result="shape"/>
</filter>
</defs>
</svg>
