<svg width="926" height="1264" viewBox="0 0 926 1264" fill="none" xmlns="http://www.w3.org/2000/svg">
<g filter="url(#filter0_d_8_31384)">
<path d="M784.634 478.842C790.445 490.464 909.572 304.508 839.839 287.075C791.589 275.012 762.635 434.843 784.634 478.842Z" fill="#00AC5C"/>
<path d="M773.012 542.764C773.012 542.764 802.067 481.747 839.84 455.597C877.612 429.447 905.071 433.662 912.478 441.069C927.006 455.597 909.572 554.386 773.012 542.764Z" fill="#00AC5C"/>
<path d="M738.145 844.941C738.145 844.941 769.479 745.71 796.256 708.38C823.033 671.05 865.989 667.702 874.706 679.325C891.875 702.218 860.177 786.83 738.145 844.941Z" fill="#00AC5C"/>
<path d="M732.333 844.942C732.333 844.942 728.565 725.372 701.789 688.042C675.012 650.711 632.055 647.364 623.339 658.986C606.169 681.879 610.3 786.83 732.333 844.942Z" fill="#00AC5C"/>
<path d="M746.862 722.908C746.862 722.908 769.577 613.36 810.784 577.63C851.99 541.9 880.692 553.341 889.234 563.102C909.572 586.347 860.178 667.702 746.862 722.908Z" fill="#00AC5C"/>
<path d="M746.862 708.38C746.862 708.38 741.334 623.607 711.995 577.63C682.657 531.653 643.142 521.759 632.557 529.255C611.798 543.955 601.584 609.591 746.862 708.38Z" fill="#00AC5C"/>
<path d="M800.156 428.832C779.946 516.14 763.942 604.61 753.097 693.58C746.198 754.029 741.495 815.984 744.379 876.696C744.623 884.186 733.357 885.044 732.771 877.26C729.664 763.205 748.183 649.884 769.895 538.348C777.379 501.217 785.431 464.243 794.59 427.448C794.973 425.911 796.528 424.975 798.065 425.358C799.603 425.739 800.537 427.3 800.156 428.832Z" fill="#206947"/>
<path d="M837.36 307.411C822.066 349.562 809.103 392.17 797.374 435.436C801.17 390.679 814.762 346.272 837.36 307.411Z" fill="#008B4A"/>
<path d="M892.565 461.406C874.767 498.283 831.481 524.27 793.777 536.951C798.269 534.122 802.855 531.563 807.406 528.959C838.403 510.42 870.224 490.346 892.565 461.406Z" fill="#008B4A"/>
<path d="M762.981 582.203C762.981 582.203 766.182 499.591 743.956 449.786C721.729 399.98 694.515 391.635 682.939 397.486C660.237 408.959 642.262 513.708 762.981 582.203Z" fill="#00AC5C"/>
<path d="M747.289 542.761C718.367 518.155 704.573 478.804 698.736 442.254C698.1 436.883 697.55 431.51 697.209 426.13C698.824 431.304 700.119 436.507 701.53 441.67C711.766 477.285 724.168 513.231 747.289 542.761Z" fill="#008B4A"/>
<path d="M646.91 558.234C680.642 575.669 702.97 610.888 716.912 645.174C718.747 650.262 720.496 655.373 722.043 660.536C719.301 655.861 716.864 651.085 714.323 646.375C696.306 613.992 676.104 581.778 646.91 558.234Z" fill="#008B4A"/>
<path d="M869.321 583.439C837.511 614.615 807.642 650.518 776.344 682.228C788.789 663.204 803.12 645.484 818.403 628.676C833.904 612.111 850.118 595.745 869.321 583.439Z" fill="#008B4A"/>
<path d="M854.794 696.755C846.718 718.758 833.344 738.421 819.176 756.922C804.694 775.251 788.554 792.293 770.533 807.166C774.125 802.542 777.928 798.146 781.65 793.686C807.57 762.649 833.474 731.208 854.794 696.755Z" fill="#008B4A"/>
<path d="M709.516 801.356C674.058 772.645 653.313 723.425 645.593 679.323C647.829 684.736 649.727 690.218 651.779 695.637C666.276 733.138 683.24 770.472 709.516 801.356Z" fill="#008B4A"/>
</g>
<g filter="url(#filter1_d_8_31384)">
<path d="M323.65 410.778C318.515 422.714 188.916 243.898 257.535 222.493C305.013 207.683 343.088 365.59 323.65 410.778Z" fill="#00AC5C"/>
<path d="M338.919 473.928C338.919 473.928 306.412 414.678 267.201 390.738C227.991 366.798 200.819 372.58 193.849 380.401C180.179 395.738 203.25 493.364 338.919 473.928Z" fill="#00AC5C"/>
<path d="M391.062 773.608C391.062 773.608 354.087 676.338 325.213 640.605C296.339 604.872 253.261 603.994 245.226 616.098C229.398 639.938 265.897 722.592 391.062 773.608Z" fill="#00AC5C"/>
<path d="M396.864 773.274C396.864 773.274 393.767 653.685 418.358 614.881C442.95 576.076 485.643 570.269 495.012 581.373C513.467 603.243 515.363 708.258 396.864 773.274Z" fill="#00AC5C"/>
<path d="M375.36 652.275C375.36 652.275 346.397 544.211 303.209 510.903C260.021 477.596 232.022 490.665 224.055 500.899C205.083 525.273 259.063 603.661 375.36 652.275Z" fill="#00AC5C"/>
<path d="M374.527 637.771C374.527 637.771 375.183 552.821 401.835 505.237C428.488 457.653 467.37 445.508 478.368 452.384C499.936 465.869 513.898 530.811 374.527 637.771Z" fill="#00AC5C"/>
<path d="M305.284 361.74C330.469 447.746 351.522 535.152 367.452 623.353C377.807 683.307 386.057 744.89 386.66 805.668C386.847 813.159 398.143 813.37 398.282 805.565C394.841 691.519 369.851 579.447 341.777 469.34C332.175 432.7 322.016 396.249 310.761 360.04C310.291 358.527 308.684 357.682 307.172 358.153C305.658 358.621 304.815 360.233 305.284 361.74Z" fill="#206947"/>
<path d="M261.176 242.654C278.862 283.858 294.248 325.652 308.44 368.174C302.083 323.708 285.966 280.154 261.176 242.654Z" fill="#008B4A"/>
<path d="M214.895 399.562C234.779 435.357 279.484 458.818 317.854 469.316C313.207 466.749 308.481 464.457 303.789 462.119C271.779 445.389 238.86 427.172 214.895 399.562Z" fill="#008B4A"/>
<path d="M351.195 512.726C351.195 512.726 343.26 430.434 362.593 379.436C381.927 328.438 408.617 318.545 420.51 323.722C443.832 333.874 467.787 437.419 351.195 512.726Z" fill="#00AC5C"/>
<path d="M364.6 472.449C392.062 446.225 403.576 406.147 407.307 369.323C407.634 363.924 407.875 358.528 407.907 353.138C406.591 358.396 405.596 363.664 404.484 368.9C396.308 405.043 385.988 441.641 364.6 472.449Z" fill="#008B4A"/>
<path d="M465.7 482.138C433.024 501.48 412.754 537.921 400.801 572.951C399.262 578.136 397.809 583.339 396.56 588.582C399.029 583.757 401.188 578.85 403.455 574.001C419.585 540.639 437.905 507.318 465.7 482.138Z" fill="#008B4A"/>
<path d="M245.101 520.061C278.648 549.36 310.526 583.491 343.592 613.354C330.076 595.074 314.752 578.206 298.53 562.302C282.105 546.653 264.979 531.245 245.101 520.061Z" fill="#008B4A"/>
<path d="M266.105 632.358C275.429 653.86 289.909 672.724 305.115 690.381C320.625 707.85 337.716 723.938 356.56 737.753C352.709 733.342 348.661 729.172 344.689 724.933C317.031 695.434 289.366 665.53 266.105 632.358Z" fill="#008B4A"/>
<path d="M417.144 728.452C450.895 697.754 468.783 647.425 473.961 602.953C472.038 608.486 470.459 614.067 468.721 619.595C456.399 657.866 441.605 696.111 417.144 728.452Z" fill="#008B4A"/>
</g>
<g filter="url(#filter2_d_8_31384)">
<path d="M510.067 198.333C515.458 210.156 641.171 28.5877 572.107 8.66747C524.32 -5.11583 489.659 153.575 510.067 198.333Z" fill="#00AC5C"/>
<path d="M496.163 261.798C496.163 261.798 527.386 201.861 566.071 177.081C604.755 152.301 632.046 157.497 639.183 165.165C653.181 180.204 632.22 278.305 496.163 261.798Z" fill="#00AC5C"/>
<path d="M450.494 562.533C450.494 562.533 485.363 464.488 513.46 428.141C541.557 391.794 584.606 389.987 592.9 401.914C609.239 425.408 574.53 508.83 450.494 562.533Z" fill="#00AC5C"/>
<path d="M444.686 562.325C444.686 562.325 445.204 442.697 419.782 404.431C394.359 366.166 351.55 361.281 342.423 372.584C324.444 394.847 324.813 499.879 444.686 562.325Z" fill="#00AC5C"/>
<path d="M463.576 440.89C463.576 440.89 490.202 332.226 532.662 297.995C575.122 263.764 603.396 276.226 611.582 286.287C631.075 310.245 578.797 389.779 463.576 440.89Z" fill="#00AC5C"/>
<path d="M464.097 426.371C464.097 426.371 461.609 341.455 433.937 294.456C406.265 247.458 367.129 236.155 356.283 243.266C335.011 257.214 322.452 322.441 464.097 426.371Z" fill="#00AC5C"/>
<path d="M527.371 148.911C504.047 235.44 484.884 323.28 470.859 411.804C461.799 471.967 454.879 533.714 455.587 594.49C455.561 601.984 444.273 602.438 443.965 594.638C444.946 480.544 467.514 367.96 493.207 257.273C502.017 220.434 511.388 183.773 521.859 147.329C522.297 145.806 523.885 144.927 525.407 145.365C526.93 145.801 527.808 147.394 527.371 148.911Z" fill="#206947"/>
<path d="M568.902 28.9016C552.108 70.4772 537.627 112.593 524.355 155.411C529.752 110.819 544.926 66.9279 568.902 28.9016Z" fill="#008B4A"/>
<path d="M618.555 184.775C599.447 220.991 555.258 245.41 517.124 256.733C521.714 254.067 526.389 251.674 531.03 249.235C562.671 231.818 595.191 212.896 618.555 184.775Z" fill="#008B4A"/>
<path d="M484.726 300.852C484.726 300.852 490.885 218.408 470.457 167.839C450.028 117.269 423.131 107.954 411.353 113.386C388.255 124.04 366.538 228.077 484.726 300.852Z" fill="#00AC5C"/>
<path d="M470.457 260.874C442.436 235.248 430.059 195.428 425.536 158.692C425.092 153.302 424.736 147.913 424.587 142.524C426.016 147.752 427.124 152.998 428.349 158.208C437.303 194.167 448.409 230.534 470.457 260.874Z" fill="#008B4A"/>
<path d="M369.588 272.741C402.674 291.373 423.725 327.369 436.431 362.133C438.081 367.283 439.646 372.453 441.008 377.669C438.435 372.898 436.17 368.039 433.8 363.24C416.954 330.233 397.92 297.315 369.588 272.741Z" fill="#008B4A"/>
<path d="M590.954 305.897C558.047 335.913 526.911 370.724 494.497 401.292C507.616 382.726 522.573 365.531 538.448 349.281C554.532 333.282 571.322 317.508 590.954 305.897Z" fill="#008B4A"/>
<path d="M572.376 418.621C563.518 440.32 549.448 459.492 534.626 477.473C519.496 495.272 502.756 511.724 484.214 525.942C487.969 521.45 491.927 517.193 495.807 512.869C522.822 482.781 549.835 452.288 572.376 418.621Z" fill="#008B4A"/>
<path d="M423.444 517.949C389.039 487.987 370.07 438.055 363.934 393.705C365.976 399.195 367.675 404.741 369.532 410.23C382.676 448.226 398.292 486.144 423.444 517.949Z" fill="#008B4A"/>
</g>
<g filter="url(#filter3_d_8_31384)">
<path d="M644.038 372.511C648.773 384.612 784.251 210.209 716.383 186.532C669.424 170.15 626.114 326.702 644.038 372.511Z" fill="#00AC5C"/>
<path d="M626.674 435.118C626.674 435.118 661.136 376.984 701.122 354.362C741.107 331.74 768.071 338.424 774.778 346.472C787.93 362.256 761.621 459.06 626.674 435.118Z" fill="#00AC5C"/>
<path d="M564.585 732.897C564.585 732.897 604.777 636.912 634.824 602.16C664.872 567.408 707.955 567.964 715.583 580.328C730.609 604.682 691.379 686.076 564.585 732.897Z" fill="#00AC5C"/>
<path d="M558.798 732.371C558.798 732.371 565.873 612.951 542.587 573.349C519.301 533.748 476.825 526.524 467.091 537.309C447.919 558.553 442.529 663.447 558.798 732.371Z" fill="#00AC5C"/>
<path d="M584.318 612.154C584.318 612.154 616.861 505.114 661.134 473.262C705.406 441.411 732.955 455.404 740.577 465.898C758.727 490.89 702.168 567.438 584.318 612.154Z" fill="#00AC5C"/>
<path d="M585.633 597.686C585.633 597.686 587.805 512.761 562.751 464.316C537.697 415.871 499.24 402.439 488.021 408.946C466.016 421.705 449.899 486.146 585.633 597.686Z" fill="#00AC5C"/>
<path d="M664.025 324.113C635.991 409.232 612.041 495.889 593.184 583.511C580.838 643.087 570.544 704.362 567.918 765.086C567.482 772.566 556.185 772.401 556.306 764.596C563.541 650.728 592.247 539.55 623.971 430.438C634.787 394.138 646.154 358.045 658.607 322.231C659.128 320.734 660.762 319.943 662.258 320.464C663.755 320.983 664.544 322.622 664.025 324.113Z" fill="#206947"/>
<path d="M712.073 206.561C693.024 247.153 676.256 288.412 660.656 330.438C668.49 286.208 686.048 243.215 712.073 206.561Z" fill="#008B4A"/>
<path d="M753.105 364.922C732.04 400.036 686.579 421.996 647.882 431.21C652.611 428.8 657.41 426.666 662.178 424.486C694.727 408.83 728.235 391.72 753.105 364.922Z" fill="#008B4A"/>
<path d="M613.114 473.487C613.114 473.487 623.783 391.504 606.158 339.891C588.534 288.278 562.187 277.502 550.129 282.28C526.482 291.651 499.093 394.341 613.114 473.487Z" fill="#00AC5C"/>
<path d="M601.058 432.787C574.484 405.663 564.309 365.224 561.807 328.296C561.659 322.89 561.599 317.488 561.746 312.1C562.886 317.399 563.704 322.697 564.642 327.967C571.611 364.363 580.707 401.284 601.058 432.787Z" fill="#008B4A"/>
<path d="M499.69 439.105C531.704 459.523 550.75 496.619 561.531 532.027C562.897 537.261 564.176 542.509 565.249 547.791C562.942 542.886 560.947 537.91 558.844 532.989C543.832 499.108 526.632 465.196 499.69 439.105Z" fill="#008B4A"/>
<path d="M718.905 484.349C684.401 512.516 651.404 545.567 617.363 574.312C631.48 556.492 647.357 540.144 664.099 524.789C681.036 509.695 698.666 494.865 718.905 484.349Z" fill="#008B4A"/>
<path d="M694.175 595.884C684.14 617.064 669.04 635.436 653.254 652.577C637.172 669.52 619.555 685.03 600.261 698.21C604.257 693.93 608.442 689.897 612.553 685.792C641.178 657.23 669.822 628.264 694.175 595.884Z" fill="#008B4A"/>
<path d="M540.021 686.897C507.309 655.093 491.107 604.197 487.412 559.577C489.149 565.171 490.542 570.801 492.095 576.384C503.136 615.044 516.65 653.761 540.021 686.897Z" fill="#008B4A"/>
</g>
<g filter="url(#filter4_d_8_31384)">
<path d="M351.662 806.256C345.888 817.897 226.169 632.322 295.846 614.667C344.057 602.45 373.521 762.188 351.662 806.256Z" fill="#00AC5C"/>
<path d="M363.487 870.141C363.487 870.141 334.238 809.217 296.382 783.188C258.527 757.158 231.081 761.46 223.697 768.891C209.216 783.466 226.964 882.198 363.487 870.141Z" fill="#00AC5C"/>
<path d="M399.316 1172.21C399.316 1172.21 367.666 1073.08 340.77 1035.83C313.875 998.586 270.908 995.376 262.228 1007.03C245.132 1029.97 277.099 1114.48 399.316 1172.21Z" fill="#00AC5C"/>
<path d="M405.128 1172.19C405.128 1172.19 408.515 1052.61 435.172 1015.19C461.83 977.776 504.776 974.291 513.529 985.886C530.772 1008.72 526.975 1113.69 405.128 1172.19Z" fill="#00AC5C"/>
<path d="M390.211 1050.2C390.211 1050.2 367.147 940.727 325.827 905.128C284.507 869.53 255.841 881.062 247.331 890.85C227.066 914.16 276.72 995.357 390.211 1050.2Z" fill="#00AC5C"/>
<path d="M390.165 1035.67C390.165 1035.67 395.423 950.883 424.615 904.813C453.806 858.743 493.29 848.723 503.898 856.185C524.704 870.819 535.127 936.422 390.165 1035.67Z" fill="#00AC5C"/>
<path d="M335.981 756.296C356.469 843.54 372.755 931.959 383.883 1020.89C390.974 1081.32 395.875 1143.26 393.184 1203.98C392.965 1211.47 404.233 1212.29 404.795 1204.51C407.538 1090.44 388.657 977.182 366.59 865.715C358.988 828.609 350.818 791.661 341.542 754.895C341.154 753.359 339.596 752.428 338.06 752.816C336.523 753.202 335.594 754.766 335.981 756.296Z" fill="#206947"/>
<path d="M298.389 634.995C313.817 677.097 326.916 719.663 338.783 762.891C334.844 718.147 321.111 673.784 298.389 634.995Z" fill="#008B4A"/>
<path d="M243.674 789.164C261.59 825.985 304.959 851.833 342.703 864.394C338.202 861.58 333.607 859.035 329.048 856.446C297.993 838.006 266.108 818.033 243.674 789.164Z" fill="#008B4A"/>
<path d="M373.643 909.548C373.643 909.548 370.179 826.947 392.247 777.071C414.315 727.195 441.502 718.763 453.096 724.577C475.834 735.978 494.144 840.669 373.643 909.548Z" fill="#00AC5C"/>
<path d="M389.21 870.056C418.053 845.358 431.722 805.964 437.442 769.396C438.061 764.023 438.594 758.648 438.918 753.266C437.319 758.446 436.041 763.652 434.646 768.82C424.524 804.468 412.236 840.453 389.21 870.056Z" fill="#008B4A"/>
<path d="M489.638 885.209C455.961 902.752 433.747 938.042 419.913 972.372C418.095 977.466 416.362 982.582 414.831 987.751C417.559 983.066 419.98 978.283 422.506 973.565C440.421 941.125 460.519 908.846 489.638 885.209Z" fill="#008B4A"/>
<path d="M267.308 911.123C299.218 942.197 329.2 978.006 360.599 1009.62C348.094 990.631 333.706 972.957 318.37 956.197C302.816 939.682 286.551 923.368 267.308 911.123Z" fill="#008B4A"/>
<path d="M282.196 1024.39C290.342 1046.37 303.778 1065.99 318.006 1084.45C332.546 1102.73 348.74 1119.72 366.809 1134.53C363.202 1129.92 359.385 1125.54 355.649 1121.09C329.63 1090.14 303.626 1058.78 282.196 1024.39Z" fill="#008B4A"/>
<path d="M427.806 1128.53C463.172 1099.71 483.76 1050.42 491.34 1006.29C489.121 1011.71 487.241 1017.2 485.206 1022.63C470.829 1060.17 453.984 1097.56 427.806 1128.53Z" fill="#008B4A"/>
</g>
<g filter="url(#filter5_d_8_31384)">
<path d="M725.581 839.238C728.314 851.941 890.004 701.517 826.81 667.265C783.086 643.565 715.234 791.147 725.581 839.238Z" fill="#00AC5C"/>
<path d="M698.404 898.25C698.404 898.25 741.741 846.394 784.836 830.476C827.931 814.558 853.475 825.479 858.804 834.498C869.255 852.186 827.766 943.52 698.404 898.25Z" fill="#00AC5C"/>
<path d="M589.372 1182.22C589.372 1182.22 644.434 1093.92 679.665 1064.44C714.896 1034.95 757.333 1042.41 762.88 1055.84C773.806 1082.28 722.033 1156.34 589.372 1182.22Z" fill="#00AC5C"/>
<path d="M583.744 1180.77C583.744 1180.77 609.875 1064.03 593.241 1021.21C576.606 978.387 535.837 964.446 524.5 973.531C502.169 991.426 480.03 1094.1 583.744 1180.77Z" fill="#00AC5C"/>
<path d="M628.209 1066.2C628.209 1066.2 677.494 965.766 726.301 941.425C775.108 917.085 800.056 935.314 805.897 946.895C819.805 974.473 751.704 1040.96 628.209 1066.2Z" fill="#00AC5C"/>
<path d="M631.827 1052.13C631.827 1052.13 647.588 968.656 630.626 916.821C613.664 864.985 577.858 845.561 565.74 850.184C541.974 859.251 515.733 920.274 631.827 1052.13Z" fill="#00AC5C"/>
<path d="M753.07 794.67C711.75 874.193 674.215 955.889 641.553 1039.35C619.815 1096.18 599.828 1155.01 587.5 1214.53C585.87 1221.84 574.746 1219.87 576.117 1212.18C601.516 1100.95 647.677 995.81 696.485 893.197C712.982 859.101 729.989 825.298 748.024 791.943C748.778 790.55 750.517 790.031 751.91 790.785C753.305 791.537 753.821 793.281 753.07 794.67Z" fill="#206947"/>
<path d="M819.345 686.343C794.034 723.355 770.867 761.392 748.731 800.373C763.555 757.972 787.78 718.35 819.345 686.343Z" fill="#008B4A"/>
<path d="M834.454 849.234C808.031 880.516 759.637 894.902 719.963 897.793C725.017 896.172 730.097 894.836 735.153 893.448C769.79 883.214 805.608 871.697 834.454 849.234Z" fill="#008B4A"/>
<path d="M678.866 933.948C678.866 933.948 702.543 854.737 693.422 800.966C684.3 747.194 660.022 732.333 647.354 735.116C622.51 740.574 579.011 837.544 678.866 933.948Z" fill="#00AC5C"/>
<path d="M673.492 891.841C651.611 860.807 648.052 819.26 651.503 782.409C652.224 777.049 653.03 771.708 654.04 766.412C654.316 771.826 654.274 777.187 654.354 782.539C655.397 819.581 658.455 857.483 673.492 891.841Z" fill="#008B4A"/>
<path d="M572.423 881.824C600.749 907.112 613.601 946.782 618.564 983.46C619.073 988.845 619.494 994.23 619.707 999.616C618.216 994.405 617.045 989.173 615.758 983.978C606.373 948.129 594.832 911.898 572.423 881.824Z" fill="#008B4A"/>
<path d="M781.547 961.632C742.974 983.902 705.104 1011.23 666.894 1034.15C683.686 1018.82 701.979 1005.23 720.967 992.761C740.105 980.578 759.884 968.767 781.547 961.632Z" fill="#008B4A"/>
<path d="M739.254 1067.76C725.953 1087.06 708.103 1102.77 689.773 1117.16C671.181 1131.3 651.306 1143.79 630.148 1153.7C634.779 1150.12 639.556 1146.81 644.272 1143.42C677.106 1119.81 710.024 1095.82 739.254 1067.76Z" fill="#008B4A"/>
<path d="M572.501 1132.88C545.312 1096.24 537.48 1043.4 540.987 998.769C541.805 1004.57 542.277 1010.35 542.915 1016.11C547.615 1056.04 554.745 1096.42 572.501 1132.88Z" fill="#008B4A"/>
</g>
<g filter="url(#filter6_d_8_31384)">
<path d="M583.067 715.075C585.8 727.778 747.49 577.355 684.296 543.102C640.572 519.402 572.72 666.984 583.067 715.075Z" fill="#00AC5C"/>
<path d="M555.89 774.088C555.89 774.088 599.227 722.231 642.322 706.313C685.417 690.395 710.961 701.316 716.29 710.336C726.741 728.024 685.252 819.357 555.89 774.088Z" fill="#00AC5C"/>
<path d="M446.858 1058.06C446.858 1058.06 501.92 969.759 537.151 940.274C572.382 910.79 614.819 918.247 620.366 931.675C631.292 958.122 579.519 1032.17 446.858 1058.06Z" fill="#00AC5C"/>
<path d="M441.23 1056.61C441.23 1056.61 467.361 939.871 450.727 897.048C434.092 854.225 393.323 840.283 381.986 849.368C359.655 867.263 337.516 969.936 441.23 1056.61Z" fill="#00AC5C"/>
<path d="M485.695 942.041C485.695 942.041 534.98 841.604 583.787 817.263C632.594 792.923 657.542 811.152 663.383 822.733C677.291 850.311 609.19 916.8 485.695 942.041Z" fill="#00AC5C"/>
<path d="M489.313 927.972C489.313 927.972 505.074 844.493 488.112 792.658C471.15 740.823 435.344 721.399 423.226 726.022C399.46 735.088 373.22 796.111 489.313 927.972Z" fill="#00AC5C"/>
<path d="M610.556 670.507C569.236 750.03 531.701 831.726 499.039 915.191C477.301 972.016 457.314 1030.85 444.986 1090.37C443.357 1097.68 432.232 1095.7 433.603 1088.02C459.002 976.785 505.163 871.648 553.972 769.035C570.468 734.938 587.475 701.135 605.51 667.781C606.264 666.387 608.003 665.869 609.396 666.623C610.791 667.375 611.307 669.119 610.556 670.507Z" fill="#206947"/>
<path d="M676.831 562.18C651.52 599.193 628.353 637.229 606.217 676.21C621.041 633.809 645.266 594.188 676.831 562.18Z" fill="#008B4A"/>
<path d="M691.94 725.072C665.517 756.354 617.123 770.74 577.449 773.631C582.503 772.01 587.583 770.673 592.639 769.286C627.276 759.051 663.094 747.535 691.94 725.072Z" fill="#008B4A"/>
<path d="M536.352 809.786C536.352 809.786 560.029 730.575 550.908 676.803C541.786 623.032 517.509 608.171 504.84 610.954C479.996 616.412 436.497 713.382 536.352 809.786Z" fill="#00AC5C"/>
<path d="M530.978 767.679C509.097 736.645 505.538 695.098 508.989 658.247C509.71 652.886 510.516 647.545 511.526 642.25C511.802 647.663 511.76 653.025 511.84 658.376C512.883 695.419 515.941 733.321 530.978 767.679Z" fill="#008B4A"/>
<path d="M429.909 757.662C458.235 782.949 471.087 822.619 476.051 859.298C476.559 864.682 476.98 870.068 477.193 875.454C475.702 870.243 474.531 865.011 473.244 859.816C463.859 823.966 452.319 787.735 429.909 757.662Z" fill="#008B4A"/>
<path d="M639.033 837.469C600.46 859.739 562.59 887.072 524.38 909.987C541.172 894.662 559.465 881.07 578.453 868.598C597.591 856.416 617.37 844.605 639.033 837.469Z" fill="#008B4A"/>
<path d="M596.74 943.596C583.439 962.894 565.589 978.607 547.259 992.995C528.667 1007.14 508.792 1019.62 487.634 1029.54C492.265 1025.96 497.042 1022.65 501.758 1019.25C534.592 995.652 567.51 971.653 596.74 943.596Z" fill="#008B4A"/>
<path d="M429.987 1008.72C402.798 972.078 394.966 919.242 398.473 874.607C399.291 880.407 399.763 886.188 400.401 891.948C405.101 931.878 412.231 972.26 429.987 1008.72Z" fill="#008B4A"/>
</g>
<g filter="url(#filter7_d_8_31384)">
<path d="M254.4 675.729C266.544 680.351 228.368 462.834 165.237 497.201C121.555 520.981 208.425 658.232 254.4 675.729Z" fill="#00AC5C"/>
<path d="M289.111 730.649C289.111 730.649 269.199 666.068 279.304 621.252C289.408 576.436 312.474 560.952 322.94 561.391C343.468 562.252 397.501 646.771 289.111 730.649Z" fill="#00AC5C"/>
<path d="M467.979 976.685C467.979 976.685 423.878 882.431 418.321 836.827C412.765 791.224 442.119 759.684 456.403 762.339C484.537 767.57 518.475 851.309 467.979 976.685Z" fill="#00AC5C"/>
<path d="M463.701 980.619C463.701 980.619 379.995 895.153 335.017 885.798C290.038 876.443 256.152 903.054 257.602 917.51C260.459 945.983 334.538 1020.44 463.701 980.619Z" fill="#00AC5C"/>
<path d="M391.795 880.955C391.795 880.955 334.367 784.94 340.515 730.748C346.663 676.556 375.536 665.55 388.429 666.954C419.135 670.298 437.841 763.618 391.795 880.955Z" fill="#00AC5C"/>
<path d="M381.961 870.261C381.961 870.261 320.512 811.6 267.796 797.614C215.08 783.629 179.295 803.092 176.577 815.774C171.247 840.646 208.154 895.874 381.961 870.261Z" fill="#00AC5C"/>
<path d="M231.976 628.41C276.195 706.358 324.296 782.314 376.534 855.146C412.371 904.313 450.844 953.102 494.061 995.84C499.309 1001.19 491.598 1009.45 485.897 1004.11C406.411 922.258 343.34 826.307 283.828 729.508C264.205 697.11 245.105 664.443 226.942 631.159C226.183 629.768 226.695 628.026 228.086 627.268C229.476 626.508 231.219 627.024 231.976 628.41Z" fill="#206947"/>
<path d="M177.177 513.849C194.449 555.228 213.747 595.366 234.398 635.154C206.898 599.638 186.846 557.75 177.177 513.849Z" fill="#008B4A"/>
<path d="M322.048 589.839C333.907 629.032 319.634 677.459 300.463 712.314C301.855 707.192 303.499 702.203 305.086 697.207C315.355 662.579 325.19 626.264 322.048 589.839Z" fill="#008B4A"/>
<path d="M308.422 766.47C308.422 766.47 254.862 703.492 204.789 681.874C154.716 660.256 129.035 672.534 124.474 684.675C115.529 708.487 173.198 797.761 308.422 766.47Z" fill="#00AC5C"/>
<path d="M270.174 748.058C232.23 749.521 195.44 729.892 166.405 706.938C162.301 703.415 158.259 699.832 154.366 696.102C159.058 698.817 163.532 701.771 168.066 704.616C199.707 723.905 233.167 741.97 270.174 748.058Z" fill="#008B4A"/>
<path d="M206.758 827.39C243.39 817.392 283.663 828.205 317.134 844.006C321.928 846.51 326.674 849.088 331.309 851.842C326.125 850.256 321.099 848.39 316.041 846.642C280.859 835.001 244.184 824.961 206.758 827.39Z" fill="#008B4A"/>
<path d="M387.537 695.403C385.222 739.883 387.538 786.528 385.962 831.055C382.246 808.627 380.802 785.884 380.675 763.166C380.873 740.481 381.731 717.459 387.537 695.403Z" fill="#008B4A"/>
<path d="M453.543 788.649C462.491 810.311 465.956 833.838 468.048 857.046C469.794 880.341 469.449 903.81 466.25 926.956C465.764 921.121 465.588 915.311 465.309 909.509C463.382 869.118 461.168 828.44 453.543 788.649Z" fill="#008B4A"/>
<path d="M417.403 963.979C371.869 966.844 323.283 944.655 287.749 917.417C293.06 919.887 298.167 922.638 303.345 925.238C339.4 943.031 377.157 959.03 417.403 963.979Z" fill="#008B4A"/>
</g>
<defs>
<filter id="filter0_d_8_31384" x="607.131" y="286.427" width="318.407" height="613.95" filterUnits="userSpaceOnUse" color-interpolation-filters="sRGB">
<feFlood flood-opacity="0" result="BackgroundImageFix"/>
<feColorMatrix in="SourceAlpha" type="matrix" values="0 0 0 0 0 0 0 0 0 0 0 0 0 0 0 0 0 0 127 0" result="hardAlpha"/>
<feOffset dy="8.82947"/>
<feGaussianBlur stdDeviation="4.41474"/>
<feComposite in2="hardAlpha" operator="out"/>
<feColorMatrix type="matrix" values="0 0 0 0 0 0 0 0 0 0 0 0 0 0 0 0 0 0 0.25 0"/>
<feBlend mode="normal" in2="BackgroundImageFix" result="effect1_dropShadow_8_31384"/>
<feBlend mode="normal" in="SourceGraphic" in2="effect1_dropShadow_8_31384" result="shape"/>
</filter>
<filter id="filter1_d_8_31384" x="181.59" y="221.517" width="331.597" height="607.494" filterUnits="userSpaceOnUse" color-interpolation-filters="sRGB">
<feFlood flood-opacity="0" result="BackgroundImageFix"/>
<feColorMatrix in="SourceAlpha" type="matrix" values="0 0 0 0 0 0 0 0 0 0 0 0 0 0 0 0 0 0 127 0" result="hardAlpha"/>
<feOffset dy="8.82947"/>
<feGaussianBlur stdDeviation="4.41474"/>
<feComposite in2="hardAlpha" operator="out"/>
<feColorMatrix type="matrix" values="0 0 0 0 0 0 0 0 0 0 0 0 0 0 0 0 0 0 0.25 0"/>
<feBlend mode="normal" in2="BackgroundImageFix" result="effect1_dropShadow_8_31384"/>
<feBlend mode="normal" in="SourceGraphic" in2="effect1_dropShadow_8_31384" result="shape"/>
</filter>
<filter id="filter2_d_8_31384" x="325.026" y="7.82214" width="326.701" height="610.138" filterUnits="userSpaceOnUse" color-interpolation-filters="sRGB">
<feFlood flood-opacity="0" result="BackgroundImageFix"/>
<feColorMatrix in="SourceAlpha" type="matrix" values="0 0 0 0 0 0 0 0 0 0 0 0 0 0 0 0 0 0 127 0" result="hardAlpha"/>
<feOffset dy="8.82947"/>
<feGaussianBlur stdDeviation="4.41474"/>
<feComposite in2="hardAlpha" operator="out"/>
<feColorMatrix type="matrix" values="0 0 0 0 0 0 0 0 0 0 0 0 0 0 0 0 0 0 0.25 0"/>
<feBlend mode="normal" in2="BackgroundImageFix" result="effect1_dropShadow_8_31384"/>
<feBlend mode="normal" in="SourceGraphic" in2="effect1_dropShadow_8_31384" result="shape"/>
</filter>
<filter id="filter3_d_8_31384" x="447.617" y="185.336" width="339.012" height="602.898" filterUnits="userSpaceOnUse" color-interpolation-filters="sRGB">
<feFlood flood-opacity="0" result="BackgroundImageFix"/>
<feColorMatrix in="SourceAlpha" type="matrix" values="0 0 0 0 0 0 0 0 0 0 0 0 0 0 0 0 0 0 127 0" result="hardAlpha"/>
<feOffset dy="8.82947"/>
<feGaussianBlur stdDeviation="4.41474"/>
<feComposite in2="hardAlpha" operator="out"/>
<feColorMatrix type="matrix" values="0 0 0 0 0 0 0 0 0 0 0 0 0 0 0 0 0 0 0.25 0"/>
<feBlend mode="normal" in2="BackgroundImageFix" result="effect1_dropShadow_8_31384"/>
<feBlend mode="normal" in="SourceGraphic" in2="effect1_dropShadow_8_31384" result="shape"/>
</filter>
<filter id="filter4_d_8_31384" x="210.685" y="614.002" width="319.152" height="613.641" filterUnits="userSpaceOnUse" color-interpolation-filters="sRGB">
<feFlood flood-opacity="0" result="BackgroundImageFix"/>
<feColorMatrix in="SourceAlpha" type="matrix" values="0 0 0 0 0 0 0 0 0 0 0 0 0 0 0 0 0 0 127 0" result="hardAlpha"/>
<feOffset dy="8.82947"/>
<feGaussianBlur stdDeviation="4.41474"/>
<feComposite in2="hardAlpha" operator="out"/>
<feColorMatrix type="matrix" values="0 0 0 0 0 0 0 0 0 0 0 0 0 0 0 0 0 0 0.25 0"/>
<feBlend mode="normal" in2="BackgroundImageFix" result="effect1_dropShadow_8_31384"/>
<feBlend mode="normal" in="SourceGraphic" in2="effect1_dropShadow_8_31384" result="shape"/>
</filter>
<filter id="filter5_d_8_31384" x="496.945" y="664.707" width="372.231" height="572.046" filterUnits="userSpaceOnUse" color-interpolation-filters="sRGB">
<feFlood flood-opacity="0" result="BackgroundImageFix"/>
<feColorMatrix in="SourceAlpha" type="matrix" values="0 0 0 0 0 0 0 0 0 0 0 0 0 0 0 0 0 0 127 0" result="hardAlpha"/>
<feOffset dy="8.82947"/>
<feGaussianBlur stdDeviation="4.41474"/>
<feComposite in2="hardAlpha" operator="out"/>
<feColorMatrix type="matrix" values="0 0 0 0 0 0 0 0 0 0 0 0 0 0 0 0 0 0 0.25 0"/>
<feBlend mode="normal" in2="BackgroundImageFix" result="effect1_dropShadow_8_31384"/>
<feBlend mode="normal" in="SourceGraphic" in2="effect1_dropShadow_8_31384" result="shape"/>
</filter>
<filter id="filter6_d_8_31384" x="354.431" y="540.545" width="372.231" height="572.046" filterUnits="userSpaceOnUse" color-interpolation-filters="sRGB">
<feFlood flood-opacity="0" result="BackgroundImageFix"/>
<feColorMatrix in="SourceAlpha" type="matrix" values="0 0 0 0 0 0 0 0 0 0 0 0 0 0 0 0 0 0 127 0" result="hardAlpha"/>
<feOffset dy="8.82947"/>
<feGaussianBlur stdDeviation="4.41474"/>
<feComposite in2="hardAlpha" operator="out"/>
<feColorMatrix type="matrix" values="0 0 0 0 0 0 0 0 0 0 0 0 0 0 0 0 0 0 0.25 0"/>
<feBlend mode="normal" in2="BackgroundImageFix" result="effect1_dropShadow_8_31384"/>
<feBlend mode="normal" in="SourceGraphic" in2="effect1_dropShadow_8_31384" result="shape"/>
</filter>
<filter id="filter7_d_8_31384" x="114.747" y="493.517" width="389.891" height="529.978" filterUnits="userSpaceOnUse" color-interpolation-filters="sRGB">
<feFlood flood-opacity="0" result="BackgroundImageFix"/>
<feColorMatrix in="SourceAlpha" type="matrix" values="0 0 0 0 0 0 0 0 0 0 0 0 0 0 0 0 0 0 127 0" result="hardAlpha"/>
<feOffset dy="8.82947"/>
<feGaussianBlur stdDeviation="4.41474"/>
<feComposite in2="hardAlpha" operator="out"/>
<feColorMatrix type="matrix" values="0 0 0 0 0 0 0 0 0 0 0 0 0 0 0 0 0 0 0.25 0"/>
<feBlend mode="normal" in2="BackgroundImageFix" result="effect1_dropShadow_8_31384"/>
<feBlend mode="normal" in="SourceGraphic" in2="effect1_dropShadow_8_31384" result="shape"/>
</filter>
</defs>
</svg>
