<svg width="199" height="300" viewBox="0 0 199 300" fill="none" xmlns="http://www.w3.org/2000/svg">
<g filter="url(#filter0_d_8_32058)">
<path d="M100.993 161.613C100.993 161.613 104.21 140.538 113.237 129.199C122.263 117.86 130.94 116.632 133.852 118.194C139.564 121.259 143.297 152.684 100.993 161.613Z" fill="#2EAC00"/>
<path d="M129.562 126.19C127.546 138.949 116.839 150.741 106.606 158.005C107.705 156.742 108.858 155.551 109.995 154.35C117.668 145.928 125.45 136.966 129.562 126.19Z" fill="#238300"/>
<path d="M100.064 162.288C100.064 162.288 86.8009 143.14 73.3642 135.685C59.9274 128.23 52.3854 130.957 50.7688 134.235C47.5983 140.662 61.2812 167.296 100.064 162.288Z" fill="#2EAC00"/>
<path d="M89.7574 156.134C79.0783 155.488 69.3104 148.96 61.809 141.716C60.7564 140.614 59.723 139.497 58.7354 138.343C59.9749 139.235 61.1474 140.188 62.3392 141.112C70.6736 147.4 79.5515 153.397 89.7574 156.134Z" fill="#238300"/>
<path d="M113.902 215.838C113.902 215.838 118.904 194.225 130.25 182.186C141.596 170.148 151.959 168.411 155.326 169.837C161.929 172.632 164.592 204.38 113.902 215.838Z" fill="#2EAC00"/>
<path d="M149.787 178.209C146.677 191.298 133.312 203.891 120.765 211.854C122.139 210.507 123.573 209.231 124.99 207.946C134.567 198.949 144.303 189.399 149.787 178.209Z" fill="#238300"/>
<path d="M113.185 217.979C113.185 217.979 98.5261 199.252 83.0042 192.426C67.4823 185.6 58.3814 188.798 56.2792 192.221C52.1564 198.935 66.8922 225.252 113.185 217.979Z" fill="#2EAC00"/>
<path d="M101.303 212.3C88.6706 212.243 77.449 206.154 68.9565 199.209C67.7696 198.147 66.6065 197.069 65.4998 195.951C66.9202 196.789 68.2576 197.691 69.6196 198.564C79.1536 204.491 89.3493 210.09 101.303 212.3Z" fill="#238300"/>
<path d="M122.97 16.1533C122.581 15.4281 121.367 15.4849 121.008 16.2516L120.436 17.3798C116.465 25.3425 113.101 33.6515 109.361 41.5303C107.46 45.7584 105.404 49.6787 103.385 53.546C103.552 42.0519 100.399 30.5994 94.04 21.5033C91.572 18.069 88.8037 14.9189 85.1322 12.4374L84.8422 12.2403C84.3558 11.9005 83.6134 12.4095 83.8237 12.9603C88.9863 28.8578 90.8237 46.0187 88.685 62.8236C87.266 48.9952 81.1254 35.8062 71.612 25.4551C68.8464 22.6038 65.7676 19.8252 61.8624 17.6065C61.3713 17.3091 60.6806 17.8349 60.9091 18.3575C67.7975 36.6247 74.0726 55.3813 76.8846 74.7625C68.5121 57.0583 63.3704 37.9599 59.0104 18.9301C58.9117 18.3684 58.0457 18.3123 57.8009 18.8314C55.7738 22.8392 54.7446 26.8567 54.0164 30.7617C51.8126 44.6466 53.9878 59.0318 60.4509 71.3387C49.3773 58.5185 41.4205 43.2032 36.9328 27.1021C36.8035 26.5269 35.9034 26.5132 35.686 27.0653L35.5531 27.39C33.8658 31.4876 33.3007 35.643 33.1428 39.8693C32.8735 50.9646 36.5784 62.2503 43.0722 71.7357C39.2516 69.6297 35.3712 67.4996 31.4497 65.0274C23.9769 60.5304 16.5796 55.4672 8.8685 51.0273L7.76813 50.4036C7.04542 49.9631 6.00216 50.587 6.07943 51.4061C6.83203 60.538 9.58574 69.2088 13.884 77.2808C27.9892 103.515 56.5253 109.126 84.2732 99.2632C112.847 92.14 133.523 71.6874 130.771 42.0288C129.891 32.9261 127.391 24.1786 122.97 16.1533Z" fill="#FF2F2F"/>
<path d="M136.599 282.22C135.526 282.543 134.364 282.002 133.932 280.943C116.343 237.709 77.4172 83.6871 77.0258 82.137C76.7291 80.96 77.4268 79.7549 78.6186 79.4701C79.7945 79.1723 80.9882 79.8862 81.2851 81.0616C81.6751 82.6094 120.527 236.336 138.002 279.289C138.459 280.412 137.918 281.693 136.795 282.15C136.73 282.177 136.664 282.2 136.599 282.22Z" fill="#267E29"/>
</g>
<defs>
<filter id="filter0_d_8_32058" x="1.20681" y="12.1306" width="162.534" height="279.919" filterUnits="userSpaceOnUse" color-interpolation-filters="sRGB">
<feFlood flood-opacity="0" result="BackgroundImageFix"/>
<feColorMatrix in="SourceAlpha" type="matrix" values="0 0 0 0 0 0 0 0 0 0 0 0 0 0 0 0 0 0 127 0" result="hardAlpha"/>
<feOffset dy="4.86863"/>
<feGaussianBlur stdDeviation="2.43432"/>
<feComposite in2="hardAlpha" operator="out"/>
<feColorMatrix type="matrix" values="0 0 0 0 0 0 0 0 0 0 0 0 0 0 0 0 0 0 0.25 0"/>
<feBlend mode="normal" in2="BackgroundImageFix" result="effect1_dropShadow_8_32058"/>
<feBlend mode="normal" in="SourceGraphic" in2="effect1_dropShadow_8_32058" result="shape"/>
</filter>
</defs>
</svg>
