<svg width="179" height="532" viewBox="0 0 179 532" fill="none" xmlns="http://www.w3.org/2000/svg">
<g filter="url(#filter0_d_8_31531)">
<path d="M87.9527 527.698C91.2235 527.698 94.1261 525.36 94.7244 522.027C136.26 290.682 74.1362 64.8811 73.504 62.6278C72.4763 58.9654 68.6776 56.8227 65.0118 57.8553C61.3494 58.8844 59.2134 62.6846 60.2392 66.3475C60.8632 68.5707 122.126 291.448 81.1636 519.592C80.4925 523.336 82.9831 526.917 86.7261 527.59C87.139 527.664 87.549 527.698 87.9527 527.698Z" fill="#00AF86"/>
<path d="M142.817 194.369C136.077 217.344 111.78 231.466 88.3728 227.198C73.6432 225.175 60.0222 218.67 47.5551 210.315C33.216 201.267 19.3821 221.715 33.2112 231.645C55.4728 241.364 80.114 248.385 104.885 244.691C129.89 240.934 151.043 222.715 161.258 199.923C166.253 186.573 146.034 180.461 142.817 194.369Z" fill="#00D3A2"/>
<path d="M105.25 140.388C102.716 150.414 92.6015 157.575 82.1723 157.272C78.1058 157.079 74.8286 156.385 70.911 155.273C65.4562 153.377 60.329 150.593 55.47 147.53C50.2161 144.291 43.3309 145.924 40.0906 151.177C36.3171 157.13 39.258 165.345 45.9176 167.595C59.5807 172.792 73.2109 177.397 88.2739 175.193C104.136 172.944 117.979 161.617 124.658 147.181C128.806 134.273 110.06 127.699 105.25 140.388Z" fill="#00D3A2"/>
<path d="M142.084 273.106C138.63 281.881 131.582 289.624 124.171 295.37C97.8832 315.839 66.9886 300.58 51.7635 274.545C47.826 267.995 39.3236 265.876 32.7727 269.814C24.4256 274.598 23.8264 287.1 31.5621 292.727C70.4147 325.716 107.288 333.862 149.618 300.907C155.948 296.026 162.023 290.866 167.47 284.8C173.05 278.872 172.768 269.544 166.84 263.964C158.433 255.536 142.992 261.407 142.084 273.106Z" fill="#00D3A2"/>
<path d="M149.919 350.575C136.984 379.523 104.744 395.706 76.6613 376.032C68.104 370.483 60.5429 362.837 54.2579 354.132C44.0146 340.782 24.1145 355.07 33.5767 369.062C52.5738 386.671 77.9291 403.209 105.072 401.903C132.734 400.23 154.883 381.776 171.145 360.942C181.164 345.197 156.194 332.973 149.919 350.575Z" fill="#00D3A2"/>
<path d="M153.511 436.76C140.462 465.546 108.104 481.794 80.0756 462.183C71.4946 456.658 63.8996 449.038 57.5501 440.375C47.4896 427.307 27.8884 441.598 37.3384 455.189C47.017 464.595 58.2604 472.412 70.5242 478.949L74.8363 481.09L79.359 482.913C116.337 498.608 152.405 476.56 174.334 447.089C184.045 431.746 159.87 419.724 153.511 436.76Z" fill="#00D3A2"/>
<path d="M80.6479 136.81C80.6479 136.81 -50.2218 33.492 25.545 9.38459C82.1977 -8.64161 80.6479 136.81 80.6479 136.81Z" fill="#FF4EB8"/>
<path d="M80.6477 136.81C80.6477 136.81 186.1 28.2721 115.595 2.49657C49.6521 -21.6108 80.6477 136.81 80.6477 136.81Z" fill="#FF4E4E"/>
</g>
<defs>
<filter id="filter0_d_8_31531" x="5.96046e-05" y="0" width="178.547" height="531.579" filterUnits="userSpaceOnUse" color-interpolation-filters="sRGB">
<feFlood flood-opacity="0" result="BackgroundImageFix"/>
<feColorMatrix in="SourceAlpha" type="matrix" values="0 0 0 0 0 0 0 0 0 0 0 0 0 0 0 0 0 0 127 0" result="hardAlpha"/>
<feOffset dy="1.94086"/>
<feGaussianBlur stdDeviation="0.970429"/>
<feComposite in2="hardAlpha" operator="out"/>
<feColorMatrix type="matrix" values="0 0 0 0 0 0 0 0 0 0 0 0 0 0 0 0 0 0 0.25 0"/>
<feBlend mode="normal" in2="BackgroundImageFix" result="effect1_dropShadow_8_31531"/>
<feBlend mode="normal" in="SourceGraphic" in2="effect1_dropShadow_8_31531" result="shape"/>
</filter>
</defs>
</svg>
