<svg width="274" height="479" viewBox="0 0 274 479" fill="none" xmlns="http://www.w3.org/2000/svg">
<g filter="url(#filter0_d_8_31541)">
<path d="M200.096 457.912C202.8 457.112 204.628 454.471 204.308 451.569C182.095 250.165 75.5424 78.6841 74.4689 76.9759C72.7241 74.1994 69.06 73.3566 66.2819 75.1063C63.5058 76.8523 62.669 80.516 64.4123 83.2933C65.4716 84.9787 170.597 254.254 192.502 452.871C192.862 456.129 195.797 458.482 199.055 458.123C199.415 458.083 199.762 458.011 200.096 457.912Z" fill="#00AF86"/>
<path d="M163.972 168.942C164.016 189.583 147.383 207.197 126.989 209.39C114.317 211.317 101.467 209.27 89.1184 205.41C75.0528 201.435 68.6148 221.721 82.4745 226.55C103.254 229.143 125.341 228.924 144.915 219.814C164.668 210.597 177.701 190.364 180.575 169.025C181.441 156.768 163.232 156.658 163.972 168.942Z" fill="#00D3A2"/>
<path d="M119.721 133.499C120.077 142.407 113.466 150.8 104.77 153.098C101.361 153.933 98.4822 154.16 94.9718 154.199C89.9988 153.964 85.0797 152.916 80.3142 151.572C75.1791 150.179 69.8863 153.211 68.4917 158.346C66.8273 164.19 71.2667 170.263 77.322 170.494C89.8875 171.451 102.281 171.926 114.195 166.422C126.758 160.686 135.433 147.938 137.426 134.371C137.7 122.686 120.595 121.834 119.721 133.499Z" fill="#00D3A2"/>
<path d="M182.613 234.212C181.902 242.31 177.969 250.434 173.247 256.996C156.518 280.343 127.248 275.281 108.298 257.479C103.442 253.028 95.8949 253.354 91.4419 258.211C85.7108 264.206 88.2713 274.687 96.0419 277.448C136.225 295.223 168.699 292.944 195.637 255.353C199.677 249.771 203.437 244.02 206.458 237.674C209.622 231.41 207.108 223.767 200.844 220.603C191.834 215.691 180.504 224.319 182.613 234.212Z" fill="#00D3A2"/>
<path d="M208.027 296.34C204.41 323.433 181.713 344.692 153.688 335.292C145.258 332.796 137.138 328.324 129.814 322.663C118.083 314.131 105.124 330.808 116.367 340.062C136.376 349.976 161.38 357.449 183.499 349.735C205.958 341.59 219.757 320.919 228.108 299.722C232.542 284.256 208.912 280.255 208.027 296.34Z" fill="#00D3A2"/>
<path d="M232.064 366.71C228.312 393.697 205.534 415.039 177.569 405.677C169.125 403.207 160.984 398.765 153.617 393.155C142.106 384.811 129.395 401.417 140.53 410.343C150.83 415.752 162.035 419.466 173.772 421.872L177.86 422.589L182.044 422.99C216.45 426.926 240.878 399.883 251.803 370.159C256.08 355.101 233.156 351.072 232.064 366.71Z" fill="#00D3A2"/>
<path d="M98.5083 136.556C98.5083 136.556 -34.9354 83.1336 21.8072 44.6837C64.235 15.9334 98.5083 136.556 98.5083 136.556Z" fill="#FF4EB8"/>
<path d="M98.5077 136.556C98.5077 136.556 159.153 21.0514 94.5662 16.9774C34.1593 13.1672 98.5077 136.556 98.5077 136.556Z" fill="#FF4E4E"/>
</g>
<defs>
<filter id="filter0_d_8_31541" x="6.08309" y="16.891" width="247.924" height="444.614" filterUnits="userSpaceOnUse" color-interpolation-filters="sRGB">
<feFlood flood-opacity="0" result="BackgroundImageFix"/>
<feColorMatrix in="SourceAlpha" type="matrix" values="0 0 0 0 0 0 0 0 0 0 0 0 0 0 0 0 0 0 127 0" result="hardAlpha"/>
<feOffset dy="1.67316"/>
<feGaussianBlur stdDeviation="0.836578"/>
<feComposite in2="hardAlpha" operator="out"/>
<feColorMatrix type="matrix" values="0 0 0 0 0 0 0 0 0 0 0 0 0 0 0 0 0 0 0.25 0"/>
<feBlend mode="normal" in2="BackgroundImageFix" result="effect1_dropShadow_8_31541"/>
<feBlend mode="normal" in="SourceGraphic" in2="effect1_dropShadow_8_31541" result="shape"/>
</filter>
</defs>
</svg>
