<svg width="260" height="330" viewBox="0 0 260 330" fill="none" xmlns="http://www.w3.org/2000/svg">
<g filter="url(#filter0_d_8_32075)">
<path d="M121.687 175.482C121.687 175.482 140.231 161.352 155.945 159.293C171.659 157.234 179.416 162.861 180.519 166.302C182.683 173.052 161.742 200.603 121.687 175.482Z" fill="#2EAC00"/>
<path d="M171.07 169.331C159.79 177.833 142.41 178.971 128.843 176.91C130.667 176.751 132.479 176.69 134.285 176.61C146.719 175.816 159.649 174.681 171.07 169.331Z" fill="#238300"/>
<path d="M120.444 175.307C120.444 175.307 124.562 150.17 119.659 134.098C114.756 118.026 106.752 114.44 102.991 115.789C95.6139 118.435 86.1377 149.778 120.444 175.307Z" fill="#2EAC00"/>
<path d="M117.014 162.636C109.107 154.013 106.384 141.458 105.989 130.061C105.998 128.395 106.034 126.731 106.134 125.073C106.432 126.717 106.63 128.357 106.865 129.989C108.642 141.267 111.068 152.728 117.014 162.636Z" fill="#238300"/>
<path d="M90.6382 227.936C90.6382 227.936 110.994 214.738 129.064 213.891C147.134 213.045 156.604 219.553 158.169 223.232C161.238 230.448 139.209 257.439 90.6382 227.936Z" fill="#2EAC00"/>
<path d="M147.451 225.608C135.06 233.539 114.981 233.288 99.0627 230.016C101.167 230.002 103.264 230.088 105.355 230.154C119.722 230.355 134.636 230.241 147.451 225.608Z" fill="#238300"/>
<path d="M88.4481 229.074C88.4481 229.074 91.1486 203.208 84.1278 186.047C77.1069 168.885 67.5199 164.484 63.2655 165.579C54.9218 167.727 46.5148 199.621 88.4481 229.074Z" fill="#2EAC00"/>
<path d="M83.4188 215.58C73.5269 205.937 69.3283 192.622 67.9262 180.707C67.7993 178.971 67.7035 177.239 67.6826 175.519C68.1636 177.257 68.5294 178.983 68.9376 180.704C71.9322 192.609 75.6966 204.759 83.4188 215.58Z" fill="#238300"/>
<path d="M249.493 77.7827C249.738 76.9172 248.74 76.0395 247.875 76.3698L246.568 76.8223C237.395 80.0676 228.436 84.0461 219.508 87.4003C214.801 89.2814 210.205 90.8026 205.679 92.3098C214.543 83.3967 220.766 71.9946 222.676 60.0093C223.344 55.4332 223.561 50.8523 222.559 46.1112L222.48 45.7357C222.356 45.0989 221.385 44.9352 221.132 45.5281C213.113 61.9534 201.519 76.8457 187.069 88.4369C196.46 76.4833 201.652 61.4451 202.035 46.0761C202.026 41.7323 201.716 37.2078 200.331 32.4957C200.17 31.8886 199.228 31.7774 199.01 32.362C190.548 51.9621 181.232 71.4812 168.717 88.8601C175.584 68.5751 186.052 49.6484 197.082 31.3697C197.431 30.8529 196.793 30.1508 196.206 30.373C191.566 31.9848 187.704 34.3623 184.165 36.8801C171.882 46.1254 162.662 59.0914 158.394 73.681C159.426 55.1846 164.805 37.0942 173.51 21.0217C173.845 20.471 173.148 19.7764 172.557 20.0453L172.206 20.1997C167.766 22.1403 164.164 24.979 160.829 28.1827C152.186 36.7041 146.525 48.3947 144.425 60.7887C143.02 56.2294 141.587 51.6058 140.382 46.6819C137.921 37.4673 135.951 27.8648 133.26 18.5141L132.869 17.1874C132.635 16.2919 131.34 15.9899 130.779 16.6928C124.432 24.4464 120.009 33.3579 117.257 42.972C108.417 74.3214 126.596 100.416 155.912 113.743C183.796 129.852 215.597 129.476 235.968 104.061C242.192 96.2326 246.872 87.454 249.493 77.7827Z" fill="#FF2F2F"/>
<path d="M58.0509 297.386C56.9614 296.826 56.4586 295.517 56.9236 294.357C75.9403 246.991 162.355 96.2835 163.225 94.767C163.886 93.616 165.35 93.1983 166.504 93.88C167.655 94.5391 168.051 96.0076 167.392 97.1576C166.523 98.6712 80.2743 249.089 61.3814 296.148C60.8874 297.378 59.4885 297.975 58.258 297.481C58.1867 297.453 58.1177 297.421 58.0509 297.386Z" fill="#267E29"/>
</g>
<defs>
<filter id="filter0_d_8_32075" x="51.1203" y="16.3042" width="203.734" height="291.998" filterUnits="userSpaceOnUse" color-interpolation-filters="sRGB">
<feFlood flood-opacity="0" result="BackgroundImageFix"/>
<feColorMatrix in="SourceAlpha" type="matrix" values="0 0 0 0 0 0 0 0 0 0 0 0 0 0 0 0 0 0 127 0" result="hardAlpha"/>
<feOffset dy="5.32403"/>
<feGaussianBlur stdDeviation="2.66201"/>
<feComposite in2="hardAlpha" operator="out"/>
<feColorMatrix type="matrix" values="0 0 0 0 0 0 0 0 0 0 0 0 0 0 0 0 0 0 0.25 0"/>
<feBlend mode="normal" in2="BackgroundImageFix" result="effect1_dropShadow_8_32075"/>
<feBlend mode="normal" in="SourceGraphic" in2="effect1_dropShadow_8_32075" result="shape"/>
</filter>
</defs>
</svg>
