<svg width="336" height="526" viewBox="0 0 336 526" fill="none" xmlns="http://www.w3.org/2000/svg">
<g filter="url(#filter0_d_8_31632)">
<path d="M80.127 491.082C80.9437 491.308 81.8493 491.19 82.6097 490.683C143.073 450.353 168.617 364.825 179.398 300.178C191.025 230.46 188.468 169.35 188.441 168.741C188.367 167.072 186.951 165.781 185.287 165.855C183.618 165.929 182.326 167.342 182.401 169.009C182.427 169.613 184.954 230.184 173.416 299.289C162.827 362.719 137.894 446.539 79.2546 485.653C77.8659 486.579 77.491 488.456 78.4177 489.845C78.8367 490.475 79.4504 490.896 80.127 491.082Z" fill="#267E29"/>
<path d="M190.518 251.909C205.212 255.963 220.472 250.456 229.396 237.878C235.568 229.179 245.584 206.502 225.421 165.752C238.296 179.573 251.047 188.418 263.029 191.726C275.41 195.141 286.766 192.551 295.008 184.43C304.719 174.863 308.533 159.209 304.721 144.553C300.637 128.847 288.445 117.12 271.268 112.381C261.964 109.814 251.332 109.194 239.485 110.516C269.88 95.9821 274.963 78.3795 274.875 68.0317C274.734 51.8304 261.805 36.5333 244.131 31.6571C232.369 28.4121 220.985 30.5821 212.074 37.7652C204.531 43.8474 196.164 55.6989 193.5 78.7203C186.33 47.5156 170.594 38.1413 160.616 35.3884C140.68 29.8883 117.372 43.5533 111.714 64.0561C109.455 72.2435 106.202 98.7325 150.992 114.781C112.353 114.24 93.609 132.358 89.0387 152.003C84.2148 172.74 95.2617 194.43 113.162 199.368C122.247 201.874 143.906 202.668 170.507 168.256C161.157 192.518 159.531 213.705 166.082 229.517C170.802 240.907 179.477 248.858 190.509 251.906C190.511 251.907 190.515 251.908 190.518 251.909Z" fill="#FF76F1"/>
<path d="M184.42 162.326C166.178 157.294 155.47 138.426 160.503 120.184C165.535 101.942 184.403 91.234 202.645 96.2668C220.887 101.3 231.595 120.167 226.562 138.409C221.529 156.651 202.662 167.359 184.42 162.326Z" fill="#FFCF0F"/>
<path d="M213.898 176.732C218.186 196.184 222.81 216.457 216.375 235.958C228.323 218.828 223.595 193.88 213.898 176.732Z" fill="#FFB5F8"/>
<path d="M182.595 179.118C178.12 196.299 178.095 220.983 190.93 234.642C183.028 217.515 183.824 197.564 182.595 179.118Z" fill="#FFB5F8"/>
<path d="M159.219 159.193C143.411 170.37 127.437 184.539 107.103 184.903C126.359 190.902 148.432 174.017 159.219 159.193Z" fill="#FFB5F8"/>
<path d="M143.543 131.992C125.163 134.518 100.754 145.505 95.8471 165.07C106.577 147.92 126.123 140.525 143.543 131.992Z" fill="#FFB5F8"/>
<path d="M243.825 122.223C256.398 126.856 268.977 131.621 280.102 139.121C286.836 143.511 292.443 148.958 297.043 155.763C290.105 134.415 264.665 123.763 243.825 122.223Z" fill="#FFB5F8"/>
<path d="M231.156 143.213C241.35 159.962 259.712 174.583 280.156 173.878C283.045 173.673 285.887 173.13 288.573 172.203C285.722 172.249 282.947 172.243 280.209 171.899C260.719 169.406 245.11 156.186 231.156 143.213Z" fill="#FFB5F8"/>
<path d="M140.628 48.0931C156.1 57.1077 169.995 68.4923 178.873 84.2696C178.546 82.6624 178.061 80.8419 177.61 79.242C171.924 63.4284 156.936 51.4471 140.628 48.0931Z" fill="#FFB5F8"/>
<path d="M121.782 63.4912C127.81 80.0233 142.692 98.1122 161.655 98.1752C157.257 96.6581 153.336 94.6776 149.653 92.2693C138.535 84.585 130.229 73.9495 121.782 63.4912Z" fill="#FFB5F8"/>
<path d="M206.887 80.1768C213.95 64.1028 220.071 46.5949 234.888 35.9691C217.115 41.239 208.09 63.0791 206.887 80.1768Z" fill="#FFB5F8"/>
<path d="M231.245 95.7941C245.683 87.1347 262.029 68.2193 256.956 50.2676C255.745 68.6113 242.167 82.1672 231.245 95.7941Z" fill="#FFB5F8"/>
<path d="M156.137 343.946C158.994 344.735 161.999 345.498 165.174 346.234C166.801 346.609 168.425 345.597 168.802 343.969C169.18 342.342 168.219 340.705 166.539 340.342C121.692 329.984 111.554 313.656 111.456 313.494C110.609 312.07 108.766 311.578 107.33 312.413C105.897 313.245 105.395 315.065 106.213 316.505C106.613 317.211 115.909 332.848 156.137 343.946Z" fill="#267E29"/>
<path d="M141.532 339.26C141.829 339.341 142.142 339.379 142.467 339.366C144.136 339.294 145.429 337.884 145.358 336.217C143.333 288.887 114.697 246.67 113.479 244.896C112.533 243.522 110.651 243.173 109.277 244.114C107.9 245.06 107.55 246.942 108.493 248.319C108.783 248.739 137.367 290.916 139.317 336.474C139.375 337.819 140.302 338.92 141.532 339.26Z" fill="#267E29"/>
<path d="M112.838 461.37C113.532 461.561 114.295 461.507 114.99 461.161C190.971 423.297 222.961 319.249 223.275 318.203C223.755 316.604 222.849 314.919 221.25 314.439C221.228 314.431 221.205 314.424 221.183 314.418C219.605 313.983 217.959 314.887 217.485 316.463C217.178 317.485 185.909 419.065 112.293 455.75C110.798 456.495 110.191 458.31 110.936 459.804C111.334 460.604 112.039 461.15 112.838 461.37Z" fill="#267E29"/>
<path d="M118.012 321.946C118.012 321.946 74.2399 255.71 58.2734 278.88C42.307 302.049 118.012 321.946 118.012 321.946Z" fill="#2EAC00"/>
<path d="M143.521 337.488C143.521 337.488 65.6995 321.772 70.8532 349.435C76.0069 377.097 143.521 337.488 143.521 337.488Z" fill="#2EAC00"/>
<path d="M119.239 456.8C119.239 456.8 150.022 383.618 121.887 383.204C93.7511 382.79 119.239 456.8 119.239 456.8Z" fill="#2EAC00"/>
<path d="M140.138 440.18C140.138 440.18 215.512 465.121 213.715 437.04C211.917 408.959 140.138 440.18 140.138 440.18Z" fill="#2EAC00"/>
<path d="M199.069 364.024C199.069 364.024 259.625 312.681 234.72 299.585C209.815 286.49 199.069 364.024 199.069 364.024Z" fill="#2EAC00"/>
<path d="M131.681 285.735C131.681 285.735 118.543 207.437 94.5499 222.137C70.5566 236.837 131.681 285.735 131.681 285.735Z" fill="#2EAC00"/>
<path d="M173.252 405.767C173.252 405.767 252.139 396.824 238.739 372.081C225.339 347.338 173.252 405.767 173.252 405.767Z" fill="#2EAC00"/>
<path d="M141.461 321.961C141.461 321.961 179.102 274.024 158.355 268.009C137.608 261.993 141.461 321.961 141.461 321.961Z" fill="#2EAC00"/>
<path d="M177.013 404.086C177.013 404.086 201.123 348.109 179.527 347.606C157.932 347.104 177.013 404.086 177.013 404.086Z" fill="#2EAC00"/>
<path d="M140.976 319.753C140.976 319.753 122.264 286.192 113.715 296.792C105.165 307.393 140.976 319.753 140.976 319.753Z" fill="#2EAC00"/>
</g>
<defs>
<filter id="filter0_d_8_31632" x="48.7016" y="30.1876" width="264.837" height="475.724" filterUnits="userSpaceOnUse" color-interpolation-filters="sRGB">
<feFlood flood-opacity="0" result="BackgroundImageFix"/>
<feColorMatrix in="SourceAlpha" type="matrix" values="0 0 0 0 0 0 0 0 0 0 0 0 0 0 0 0 0 0 127 0" result="hardAlpha"/>
<feOffset dy="7.35986"/>
<feGaussianBlur stdDeviation="3.67993"/>
<feComposite in2="hardAlpha" operator="out"/>
<feColorMatrix type="matrix" values="0 0 0 0 0 0 0 0 0 0 0 0 0 0 0 0 0 0 0.25 0"/>
<feBlend mode="normal" in2="BackgroundImageFix" result="effect1_dropShadow_8_31632"/>
<feBlend mode="normal" in="SourceGraphic" in2="effect1_dropShadow_8_31632" result="shape"/>
</filter>
</defs>
</svg>
