<svg width="234" height="366" viewBox="0 0 234 366" fill="none" xmlns="http://www.w3.org/2000/svg">
<g filter="url(#filter0_d_8_31978)">
<path d="M177.423 341.588C176.855 341.745 176.225 341.663 175.696 341.31C133.639 313.257 115.871 253.765 108.372 208.798C100.285 160.304 102.063 117.797 102.082 117.373C102.133 116.213 103.119 115.314 104.276 115.366C105.436 115.418 106.335 116.4 106.283 117.56C106.265 117.98 104.507 160.112 112.533 208.18C119.898 252.301 137.242 310.604 178.03 337.812C178.996 338.455 179.257 339.761 178.612 340.727C178.321 341.166 177.894 341.458 177.423 341.588Z" fill="#267E29"/>
<path d="M100.637 175.223C90.4158 178.043 79.8013 174.212 73.5942 165.463C69.301 159.413 62.3345 143.639 76.3591 115.294C67.4035 124.907 58.5343 131.06 50.1995 133.361C41.5878 135.737 33.6885 133.935 27.9558 128.286C21.2008 121.631 18.5482 110.743 21.1992 100.548C24.0402 89.6236 32.5211 81.4665 44.4686 78.1703C50.9407 76.3847 58.3362 75.9534 66.5767 76.8727C45.4344 66.7633 41.8989 54.5193 41.9602 47.3216C42.0578 36.0522 51.0508 25.4118 63.3446 22.0201C71.526 19.7629 79.4449 21.2723 85.6429 26.2688C90.8896 30.4994 96.7097 38.7431 98.5628 54.7564C103.55 33.051 114.496 26.5304 121.437 24.6155C135.303 20.7897 151.516 30.2949 155.452 44.5562C157.023 50.2512 159.286 68.6765 128.13 79.8397C155.007 79.4635 168.045 92.0657 171.224 105.731C174.579 120.155 166.896 135.242 154.445 138.677C148.125 140.42 133.06 140.972 114.556 117.036C121.06 133.912 122.191 148.649 117.634 159.647C114.351 167.571 108.317 173.101 100.644 175.221C100.642 175.222 100.639 175.222 100.637 175.223Z" fill="#FF76F1"/>
<path d="M104.879 112.911C117.568 109.41 125.016 96.2864 121.516 83.5977C118.015 70.909 104.891 63.4606 92.2022 66.9613C79.5135 70.462 72.0652 83.5861 75.5659 96.2748C79.0666 108.964 92.1907 116.412 104.879 112.911Z" fill="#FFCF0F"/>
<path d="M84.3743 122.931C81.391 136.462 78.1753 150.564 82.6511 164.128C74.3405 152.213 77.629 134.859 84.3743 122.931Z" fill="#FFB5F8"/>
<path d="M106.148 124.591C109.261 136.542 109.278 153.712 100.35 163.213C105.847 151.3 105.293 137.422 106.148 124.591Z" fill="#FFB5F8"/>
<path d="M122.408 110.732C133.404 118.506 144.515 128.362 158.659 128.615C145.265 132.788 129.912 121.043 122.408 110.732Z" fill="#FFB5F8"/>
<path d="M133.312 91.8114C146.097 93.568 163.076 101.211 166.488 114.82C159.025 102.89 145.429 97.7467 133.312 91.8114Z" fill="#FFB5F8"/>
<path d="M63.5572 85.016C54.8119 88.2387 46.0622 91.5529 38.3241 96.77C33.64 99.8233 29.7394 103.612 26.5401 108.346C31.3663 93.4963 49.0617 86.0874 63.5572 85.016Z" fill="#FFB5F8"/>
<path d="M72.3695 99.6162C65.2792 111.266 52.5071 121.436 38.2862 120.946C36.2768 120.804 34.3001 120.426 32.4317 119.781C34.4151 119.813 36.3448 119.809 38.2495 119.57C51.8061 117.836 62.6638 108.64 72.3695 99.6162Z" fill="#FFB5F8"/>
<path d="M135.34 33.4528C124.577 39.7231 114.912 47.642 108.737 58.6164C108.965 57.4985 109.302 56.2322 109.616 55.1193C113.57 44.1197 123.996 35.7857 135.34 33.4528Z" fill="#FFB5F8"/>
<path d="M148.449 44.1634C144.255 55.6628 133.904 68.2451 120.714 68.2889C123.773 67.2337 126.5 65.8561 129.062 64.1809C136.795 58.8359 142.573 51.438 148.449 44.1634Z" fill="#FFB5F8"/>
<path d="M89.2513 55.7695C84.3385 44.5887 80.0804 32.4106 69.7742 25.0195C82.1365 28.6851 88.4141 43.8767 89.2513 55.7695Z" fill="#FFB5F8"/>
<path d="M72.3079 66.6327C62.2649 60.6094 50.895 47.4522 54.4238 34.9654C55.266 47.7249 64.7111 57.1541 72.3079 66.6327Z" fill="#FFB5F8"/>
<path d="M124.552 239.243C122.565 239.791 120.474 240.322 118.266 240.834C117.134 241.095 116.005 240.391 115.743 239.259C115.479 238.127 116.148 236.988 117.317 236.735C148.511 229.531 155.563 218.173 155.631 218.061C156.22 217.07 157.503 216.728 158.501 217.309C159.498 217.887 159.847 219.153 159.278 220.155C159 220.646 152.534 231.523 124.552 239.243Z" fill="#267E29"/>
<path d="M134.711 235.983C134.504 236.04 134.286 236.066 134.061 236.057C132.9 236.006 132 235.026 132.05 233.866C133.458 200.944 153.377 171.579 154.224 170.345C154.882 169.39 156.191 169.146 157.147 169.801C158.105 170.459 158.348 171.768 157.692 172.726C157.491 173.019 137.608 202.356 136.252 234.045C136.212 234.98 135.567 235.746 134.711 235.983Z" fill="#267E29"/>
<path d="M154.67 320.92C154.187 321.054 153.656 321.016 153.173 320.775C100.322 294.438 78.0703 222.064 77.8516 221.336C77.5177 220.224 78.1479 219.052 79.2603 218.718C79.2758 218.712 79.2915 218.708 79.3066 218.704C80.4048 218.401 81.5495 219.03 81.879 220.126C82.0928 220.837 103.843 291.494 155.049 317.011C156.089 317.53 156.511 318.792 155.993 319.831C155.715 320.387 155.225 320.767 154.67 320.92Z" fill="#267E29"/>
<path d="M151.071 223.939C151.071 223.939 181.518 177.867 192.624 193.983C203.73 210.1 151.071 223.939 151.071 223.939Z" fill="#2EAC00"/>
<path d="M133.327 234.75C133.327 234.75 187.458 223.819 183.874 243.06C180.289 262.302 133.327 234.75 133.327 234.75Z" fill="#2EAC00"/>
<path d="M150.217 317.742C150.217 317.742 128.805 266.838 148.376 266.55C167.946 266.261 150.217 317.742 150.217 317.742Z" fill="#2EAC00"/>
<path d="M135.681 306.181C135.681 306.181 83.2523 323.529 84.5021 303.997C85.7522 284.464 135.681 306.181 135.681 306.181Z" fill="#2EAC00"/>
<path d="M94.689 253.208C94.689 253.208 52.5672 217.495 69.8909 208.386C87.2146 199.277 94.689 253.208 94.689 253.208Z" fill="#2EAC00"/>
<path d="M141.563 198.752C141.563 198.752 150.702 144.289 167.391 154.515C184.08 164.74 141.563 198.752 141.563 198.752Z" fill="#2EAC00"/>
<path d="M112.647 282.244C112.647 282.244 57.7749 276.023 67.0956 258.812C76.4164 241.602 112.647 282.244 112.647 282.244Z" fill="#2EAC00"/>
<path d="M134.76 223.95C134.76 223.95 108.578 190.606 123.009 186.422C137.441 182.238 134.76 223.95 134.76 223.95Z" fill="#2EAC00"/>
<path d="M110.031 281.075C110.031 281.075 93.2603 242.138 108.282 241.789C123.303 241.439 110.031 281.075 110.031 281.075Z" fill="#2EAC00"/>
<path d="M135.098 222.414C135.098 222.414 148.113 199.07 154.06 206.443C160.007 213.816 135.098 222.414 135.098 222.414Z" fill="#2EAC00"/>
</g>
<defs>
<filter id="filter0_d_8_31978" x="15.0664" y="20.9979" width="184.215" height="330.905" filterUnits="userSpaceOnUse" color-interpolation-filters="sRGB">
<feFlood flood-opacity="0" result="BackgroundImageFix"/>
<feColorMatrix in="SourceAlpha" type="matrix" values="0 0 0 0 0 0 0 0 0 0 0 0 0 0 0 0 0 0 127 0" result="hardAlpha"/>
<feOffset dy="5.11938"/>
<feGaussianBlur stdDeviation="2.55969"/>
<feComposite in2="hardAlpha" operator="out"/>
<feColorMatrix type="matrix" values="0 0 0 0 0 0 0 0 0 0 0 0 0 0 0 0 0 0 0.25 0"/>
<feBlend mode="normal" in2="BackgroundImageFix" result="effect1_dropShadow_8_31978"/>
<feBlend mode="normal" in="SourceGraphic" in2="effect1_dropShadow_8_31978" result="shape"/>
</filter>
</defs>
</svg>
