<svg width="187" height="556" viewBox="0 0 187 556" fill="none" xmlns="http://www.w3.org/2000/svg">
<g filter="url(#filter0_d_8_31521)">
<path d="M94.6983 551.605C91.2793 551.605 88.2452 549.161 87.6199 545.677C44.2023 303.851 109.141 67.8204 109.802 65.465C110.876 61.6367 114.847 59.397 118.679 60.4763C122.507 61.552 124.74 65.5244 123.667 69.3532C123.015 71.6772 58.9769 304.652 101.795 543.132C102.496 547.045 99.893 550.789 95.9805 551.492C95.5489 551.569 95.1203 551.605 94.6983 551.605Z" fill="#00AF86"/>
<path d="M37.3486 203.175C44.3941 227.191 69.7914 241.953 94.2591 237.491C109.656 235.376 123.894 228.577 136.926 219.843C151.915 210.385 166.375 231.76 151.92 242.139C128.65 252.299 102.892 259.638 76.9987 255.776C50.8613 251.85 28.7501 232.804 18.0721 208.98C12.851 195.025 33.9859 188.636 37.3486 203.175Z" fill="#00D3A2"/>
<path d="M76.618 146.748C79.2661 157.229 89.8391 164.714 100.741 164.397C104.992 164.195 108.417 163.47 112.512 162.308C118.214 160.325 123.574 157.415 128.653 154.214C134.145 150.828 141.342 152.535 144.729 158.026C148.673 164.248 145.599 172.836 138.638 175.187C124.356 180.62 110.108 185.433 94.3628 183.13C77.7826 180.779 63.3122 168.939 56.3306 153.849C51.9941 140.356 71.5902 133.485 76.618 146.748Z" fill="#00D3A2"/>
<path d="M38.1148 285.478C41.7256 294.651 49.0926 302.745 56.839 308.751C84.3179 330.148 116.612 314.198 132.527 286.983C136.643 280.137 145.53 277.922 152.378 282.038C161.103 287.039 161.73 300.107 153.644 305.988C113.031 340.472 74.4869 348.988 30.239 314.539C23.6221 309.438 17.2725 304.043 11.5782 297.703C5.74548 291.507 6.04071 281.756 12.2371 275.923C21.0248 267.113 37.1653 273.25 38.1148 285.478Z" fill="#00D3A2"/>
<path d="M29.9246 366.457C43.446 396.717 77.1472 413.633 106.502 393.068C115.447 387.267 123.35 379.275 129.92 370.175C140.627 356.221 161.429 371.156 151.538 385.782C131.68 404.189 105.176 421.476 76.8044 420.111C47.8891 418.363 24.736 399.072 7.73779 377.294C-2.73532 360.836 23.3656 348.058 29.9246 366.457Z" fill="#00D3A2"/>
<path d="M26.1696 456.547C39.8102 486.638 73.6347 503.622 102.932 483.122C111.902 477.346 119.841 469.382 126.478 460.326C136.995 446.666 157.484 461.604 147.606 475.811C137.489 485.643 125.736 493.814 112.917 500.647L108.409 502.886L103.681 504.791C65.028 521.197 27.326 498.15 4.40324 467.344C-5.74729 451.306 19.5228 438.739 26.1696 456.547Z" fill="#00D3A2"/>
<path d="M102.334 143.008C102.334 143.008 239.133 35.0092 159.933 9.80966C100.714 -9.03321 102.334 143.008 102.334 143.008Z" fill="#FF4EB8"/>
<path d="M102.334 143.008C102.334 143.008 -7.89523 29.553 65.804 2.60967C134.734 -22.5899 102.334 143.008 102.334 143.008Z" fill="#FF4E4E"/>
</g>
<defs>
<filter id="filter0_d_8_31521" x="2.09808e-05" y="0" width="186.636" height="555.662" filterUnits="userSpaceOnUse" color-interpolation-filters="sRGB">
<feFlood flood-opacity="0" result="BackgroundImageFix"/>
<feColorMatrix in="SourceAlpha" type="matrix" values="0 0 0 0 0 0 0 0 0 0 0 0 0 0 0 0 0 0 127 0" result="hardAlpha"/>
<feOffset dy="2.02879"/>
<feGaussianBlur stdDeviation="1.01439"/>
<feComposite in2="hardAlpha" operator="out"/>
<feColorMatrix type="matrix" values="0 0 0 0 0 0 0 0 0 0 0 0 0 0 0 0 0 0 0.25 0"/>
<feBlend mode="normal" in2="BackgroundImageFix" result="effect1_dropShadow_8_31521"/>
<feBlend mode="normal" in="SourceGraphic" in2="effect1_dropShadow_8_31521" result="shape"/>
</filter>
</defs>
</svg>
